<svg aria-roledescription="flowchart-v2" role="graphics-document document" viewBox="-8 -8 1002.703125 1236.703125" style="max-width: 1002.7px; background-color: white;" xmlns:xlink="http://www.w3.org/1999/xlink" xmlns="http://www.w3.org/2000/svg" width="100%" id="my-svg"><style>#my-svg{font-family:"trebuchet ms",verdana,arial,sans-serif;font-size:16px;fill:#ccc;}#my-svg .error-icon{fill:#a44141;}#my-svg .error-text{fill:#ddd;stroke:#ddd;}#my-svg .edge-thickness-normal{stroke-width:2px;}#my-svg .edge-thickness-thick{stroke-width:3.5px;}#my-svg .edge-pattern-solid{stroke-dasharray:0;}#my-svg .edge-pattern-dashed{stroke-dasharray:3;}#my-svg .edge-pattern-dotted{stroke-dasharray:2;}#my-svg .marker{fill:lightgrey;stroke:lightgrey;}#my-svg .marker.cross{stroke:lightgrey;}#my-svg svg{font-family:"trebuchet ms",verdana,arial,sans-serif;font-size:16px;}#my-svg .label{font-family:"trebuchet ms",verdana,arial,sans-serif;color:#ccc;}#my-svg .cluster-label text{fill:#F9FFFE;}#my-svg .cluster-label span,#my-svg p{color:#F9FFFE;}#my-svg .label text,#my-svg span,#my-svg p{fill:#ccc;color:#ccc;}#my-svg .node rect,#my-svg .node circle,#my-svg .node ellipse,#my-svg .node polygon,#my-svg .node path{fill:#1f2020;stroke:#81B1DB;stroke-width:1px;}#my-svg .flowchart-label text{text-anchor:middle;}#my-svg .node .katex path{fill:#000;stroke:#000;stroke-width:1px;}#my-svg .node .label{text-align:center;}#my-svg .node.clickable{cursor:pointer;}#my-svg .arrowheadPath{fill:lightgrey;}#my-svg .edgePath .path{stroke:lightgrey;stroke-width:2.0px;}#my-svg .flowchart-link{stroke:lightgrey;fill:none;}#my-svg .edgeLabel{background-color:hsl(0, 0%, 34.4117647059%);text-align:center;}#my-svg .edgeLabel rect{opacity:0.5;background-color:hsl(0, 0%, 34.4117647059%);fill:hsl(0, 0%, 34.4117647059%);}#my-svg .labelBkg{background-color:rgba(87.75, 87.75, 87.75, 0.5);}#my-svg .cluster rect{fill:hsl(180, 1.5873015873%, 28.3529411765%);stroke:rgba(255, 255, 255, 0.25);stroke-width:1px;}#my-svg .cluster text{fill:#F9FFFE;}#my-svg .cluster span,#my-svg p{color:#F9FFFE;}#my-svg div.mermaidTooltip{position:absolute;text-align:center;max-width:200px;padding:2px;font-family:"trebuchet ms",verdana,arial,sans-serif;font-size:12px;background:hsl(20, 1.5873015873%, 12.3529411765%);border:1px solid rgba(255, 255, 255, 0.25);border-radius:2px;pointer-events:none;z-index:100;}#my-svg .flowchartTitleText{text-anchor:middle;font-size:18px;fill:#ccc;}#my-svg :root{--mermaid-font-family:"trebuchet ms",verdana,arial,sans-serif;}</style><g><marker orient="auto" markerHeight="12" markerWidth="12" markerUnits="userSpaceOnUse" refY="5" refX="6" viewBox="0 0 10 10" class="marker flowchart" id="my-svg_flowchart-pointEnd"><path style="stroke-width: 1; stroke-dasharray: 1, 0;" class="arrowMarkerPath" d="M 0 0 L 10 5 L 0 10 z"/></marker><marker orient="auto" markerHeight="12" markerWidth="12" markerUnits="userSpaceOnUse" refY="5" refX="4.5" viewBox="0 0 10 10" class="marker flowchart" id="my-svg_flowchart-pointStart"><path style="stroke-width: 1; stroke-dasharray: 1, 0;" class="arrowMarkerPath" d="M 0 5 L 10 10 L 10 0 z"/></marker><marker orient="auto" markerHeight="11" markerWidth="11" markerUnits="userSpaceOnUse" refY="5" refX="11" viewBox="0 0 10 10" class="marker flowchart" id="my-svg_flowchart-circleEnd"><circle style="stroke-width: 1; stroke-dasharray: 1, 0;" class="arrowMarkerPath" r="5" cy="5" cx="5"/></marker><marker orient="auto" markerHeight="11" markerWidth="11" markerUnits="userSpaceOnUse" refY="5" refX="-1" viewBox="0 0 10 10" class="marker flowchart" id="my-svg_flowchart-circleStart"><circle style="stroke-width: 1; stroke-dasharray: 1, 0;" class="arrowMarkerPath" r="5" cy="5" cx="5"/></marker><marker orient="auto" markerHeight="11" markerWidth="11" markerUnits="userSpaceOnUse" refY="5.2" refX="12" viewBox="0 0 11 11" class="marker cross flowchart" id="my-svg_flowchart-crossEnd"><path style="stroke-width: 2; stroke-dasharray: 1, 0;" class="arrowMarkerPath" d="M 1,1 l 9,9 M 10,1 l -9,9"/></marker><marker orient="auto" markerHeight="11" markerWidth="11" markerUnits="userSpaceOnUse" refY="5.2" refX="-1" viewBox="0 0 11 11" class="marker cross flowchart" id="my-svg_flowchart-crossStart"><path style="stroke-width: 2; stroke-dasharray: 1, 0;" class="arrowMarkerPath" d="M 1,1 l 9,9 M 10,1 l -9,9"/></marker><g class="root"><g class="clusters"/><g class="edgePaths"><path marker-end="url(#my-svg_flowchart-pointEnd)" style="fill:none;" class="edge-thickness-normal edge-pattern-solid flowchart-link LS-A LE-B" id="L-A-B-0" d="M561.996,53L561.996,57.167C561.996,61.333,561.996,69.667,561.996,77.117C561.996,84.567,561.996,91.133,561.996,94.417L561.996,97.7"/><path marker-end="url(#my-svg_flowchart-pointEnd)" style="fill:none;" class="edge-thickness-normal edge-pattern-solid flowchart-link LS-B LE-C" id="L-B-C-0" d="M561.996,156L561.996,160.167C561.996,164.333,561.996,172.667,561.996,180.117C561.996,187.567,561.996,194.133,561.996,197.417L561.996,200.7"/><path marker-end="url(#my-svg_flowchart-pointEnd)" style="fill:none;" class="edge-thickness-normal edge-pattern-solid flowchart-link LS-C LE-D" id="L-C-D-0" d="M461.668,231.82L398.764,237.35C335.859,242.88,210.051,253.94,147.146,262.753C84.242,271.567,84.242,278.133,84.242,281.417L84.242,284.7"/><path marker-end="url(#my-svg_flowchart-pointEnd)" style="fill:none;" class="edge-thickness-normal edge-pattern-solid flowchart-link LS-C LE-E" id="L-C-E-0" d="M461.668,238.399L432.783,242.833C403.898,247.266,346.129,256.133,317.244,263.85C288.359,271.567,288.359,278.133,288.359,281.417L288.359,284.7"/><path marker-end="url(#my-svg_flowchart-pointEnd)" style="fill:none;" class="edge-thickness-normal edge-pattern-solid flowchart-link LS-C LE-F" id="L-C-F-0" d="M523.912,240L514.578,244.167C505.243,248.333,486.575,256.667,477.241,264.117C467.906,271.567,467.906,278.133,467.906,281.417L467.906,284.7"/><path marker-end="url(#my-svg_flowchart-pointEnd)" style="fill:none;" class="edge-thickness-normal edge-pattern-solid flowchart-link LS-C LE-G" id="L-C-G-0" d="M603.679,240L613.895,244.167C624.111,248.333,644.544,256.667,654.76,264.117C664.977,271.567,664.977,278.133,664.977,281.417L664.977,284.7"/><path marker-end="url(#my-svg_flowchart-pointEnd)" style="fill:none;" class="edge-thickness-normal edge-pattern-solid flowchart-link LS-C LE-H" id="L-C-H-0" d="M662.324,236.62L697.166,241.35C732.008,246.08,801.691,255.54,836.533,263.553C871.375,271.567,871.375,278.133,871.375,281.417L871.375,284.7"/><path marker-end="url(#my-svg_flowchart-pointEnd)" style="fill:none;" class="edge-thickness-normal edge-pattern-solid flowchart-link LS-D LE-I" id="L-D-I-0" d="M84.242,343L84.242,348.75C84.242,354.5,84.242,366,134.332,379.714C184.422,393.428,284.602,409.356,334.692,417.32L384.781,425.284"/><path marker-end="url(#my-svg_flowchart-pointEnd)" style="fill:none;" class="edge-thickness-normal edge-pattern-solid flowchart-link LS-E LE-I" id="L-E-I-0" d="M288.359,343L288.359,348.75C288.359,354.5,288.359,366,304.466,377.222C320.572,388.444,352.785,399.388,368.891,404.86L384.997,410.332"/><path marker-end="url(#my-svg_flowchart-pointEnd)" style="fill:none;" class="edge-thickness-normal edge-pattern-solid flowchart-link LS-F LE-I" id="L-F-I-0" d="M467.906,343L467.906,348.75C467.906,354.5,467.906,366,467.906,376.617C467.906,387.233,467.906,396.967,467.906,401.833L467.906,406.7"/><path marker-end="url(#my-svg_flowchart-pointEnd)" style="fill:none;" class="edge-thickness-normal edge-pattern-solid flowchart-link LS-G LE-I" id="L-G-I-0" d="M664.977,343L664.977,348.75C664.977,354.5,664.977,366,645.957,377.637C626.938,389.274,588.899,401.049,569.879,406.936L550.86,412.823"/><path marker-end="url(#my-svg_flowchart-pointEnd)" style="fill:none;" class="edge-thickness-normal edge-pattern-solid flowchart-link LS-H LE-I" id="L-H-I-0" d="M871.375,343L871.375,348.75C871.375,354.5,871.375,366,817.985,379.822C764.596,393.644,657.817,409.788,604.427,417.86L551.037,425.932"/><path marker-end="url(#my-svg_flowchart-pointEnd)" style="fill:none;" class="edge-thickness-normal edge-pattern-solid flowchart-link LS-I LE-J" id="L-I-J-0" d="M467.906,465L467.906,469.167C467.906,473.333,467.906,481.667,499.512,499.687C531.117,517.707,594.327,545.414,625.933,559.267L657.538,573.121"/><path marker-end="url(#my-svg_flowchart-pointEnd)" style="fill:none;" class="edge-thickness-normal edge-pattern-solid flowchart-link LS-J LE-C" id="L-J-C-0" d="M781.889,575.249L814.137,561.04C846.384,546.832,910.88,518.416,943.127,495.625C975.375,472.833,975.375,455.667,975.375,436.917C975.375,418.167,975.375,397.833,975.375,377.5C975.375,357.167,975.375,336.833,975.375,318.083C975.375,299.333,975.375,282.167,924.079,268.372C872.782,254.576,770.19,244.153,718.893,238.941L667.597,233.729"/><path marker-end="url(#my-svg_flowchart-pointEnd)" style="fill:none;" class="edge-thickness-normal edge-pattern-solid flowchart-link LS-J LE-K" id="L-J-K-0" d="M722.141,687.203L722.057,692.87C721.974,698.536,721.807,709.87,721.724,720.403C721.641,730.936,721.641,740.67,721.641,745.536L721.641,750.403"/><path marker-end="url(#my-svg_flowchart-pointEnd)" style="fill:none;" class="edge-thickness-normal edge-pattern-solid flowchart-link LS-K LE-L" id="L-K-L-0" d="M721.641,808.703L721.641,812.87C721.641,817.036,721.641,825.37,721.641,832.82C721.641,840.27,721.641,846.836,721.641,850.12L721.641,853.403"/><path marker-end="url(#my-svg_flowchart-pointEnd)" style="fill:none;" class="edge-thickness-normal edge-pattern-solid flowchart-link LS-L LE-M" id="L-L-M-0" d="M721.641,911.703L721.641,915.87C721.641,920.036,721.641,928.37,721.641,935.82C721.641,943.27,721.641,949.836,721.641,953.12L721.641,956.403"/><path marker-end="url(#my-svg_flowchart-pointEnd)" style="fill:none;" class="edge-thickness-normal edge-pattern-solid flowchart-link LS-M LE-N" id="L-M-N-0" d="M721.641,1014.703L721.641,1018.87C721.641,1023.036,721.641,1031.37,721.641,1038.82C721.641,1046.27,721.641,1052.836,721.641,1056.12L721.641,1059.403"/><path marker-end="url(#my-svg_flowchart-pointEnd)" style="fill:none;" class="edge-thickness-normal edge-pattern-solid flowchart-link LS-N LE-O" id="L-N-O-0" d="M721.641,1117.703L721.641,1121.87C721.641,1126.036,721.641,1134.37,721.641,1141.82C721.641,1149.27,721.641,1155.836,721.641,1159.12L721.641,1162.403"/></g><g class="edgeLabels"><g class="edgeLabel"><g transform="translate(0, 0)" class="label"><foreignObject height="0" width="0"><div style="display: inline-block; white-space: nowrap;" xmlns="http://www.w3.org/1999/xhtml"><span class="edgeLabel"></span></div></foreignObject></g></g><g class="edgeLabel"><g transform="translate(0, 0)" class="label"><foreignObject height="0" width="0"><div style="display: inline-block; white-space: nowrap;" xmlns="http://www.w3.org/1999/xhtml"><span class="edgeLabel"></span></div></foreignObject></g></g><g class="edgeLabel"><g transform="translate(0, 0)" class="label"><foreignObject height="0" width="0"><div style="display: inline-block; white-space: nowrap;" xmlns="http://www.w3.org/1999/xhtml"><span class="edgeLabel"></span></div></foreignObject></g></g><g class="edgeLabel"><g transform="translate(0, 0)" class="label"><foreignObject height="0" width="0"><div style="display: inline-block; white-space: nowrap;" xmlns="http://www.w3.org/1999/xhtml"><span class="edgeLabel"></span></div></foreignObject></g></g><g class="edgeLabel"><g transform="translate(0, 0)" class="label"><foreignObject height="0" width="0"><div style="display: inline-block; white-space: nowrap;" xmlns="http://www.w3.org/1999/xhtml"><span class="edgeLabel"></span></div></foreignObject></g></g><g class="edgeLabel"><g transform="translate(0, 0)" class="label"><foreignObject height="0" width="0"><div style="display: inline-block; white-space: nowrap;" xmlns="http://www.w3.org/1999/xhtml"><span class="edgeLabel"></span></div></foreignObject></g></g><g class="edgeLabel"><g transform="translate(0, 0)" class="label"><foreignObject height="0" width="0"><div style="display: inline-block; white-space: nowrap;" xmlns="http://www.w3.org/1999/xhtml"><span class="edgeLabel"></span></div></foreignObject></g></g><g class="edgeLabel"><g transform="translate(0, 0)" class="label"><foreignObject height="0" width="0"><div style="display: inline-block; white-space: nowrap;" xmlns="http://www.w3.org/1999/xhtml"><span class="edgeLabel"></span></div></foreignObject></g></g><g class="edgeLabel"><g transform="translate(0, 0)" class="label"><foreignObject height="0" width="0"><div style="display: inline-block; white-space: nowrap;" xmlns="http://www.w3.org/1999/xhtml"><span class="edgeLabel"></span></div></foreignObject></g></g><g class="edgeLabel"><g transform="translate(0, 0)" class="label"><foreignObject height="0" width="0"><div style="display: inline-block; white-space: nowrap;" xmlns="http://www.w3.org/1999/xhtml"><span class="edgeLabel"></span></div></foreignObject></g></g><g class="edgeLabel"><g transform="translate(0, 0)" class="label"><foreignObject height="0" width="0"><div style="display: inline-block; white-space: nowrap;" xmlns="http://www.w3.org/1999/xhtml"><span class="edgeLabel"></span></div></foreignObject></g></g><g class="edgeLabel"><g transform="translate(0, 0)" class="label"><foreignObject height="0" width="0"><div style="display: inline-block; white-space: nowrap;" xmlns="http://www.w3.org/1999/xhtml"><span class="edgeLabel"></span></div></foreignObject></g></g><g class="edgeLabel"><g transform="translate(0, 0)" class="label"><foreignObject height="0" width="0"><div style="display: inline-block; white-space: nowrap;" xmlns="http://www.w3.org/1999/xhtml"><span class="edgeLabel"></span></div></foreignObject></g></g><g transform="translate(975.375, 377.5)" class="edgeLabel"><g transform="translate(-11.328125, -9.5)" class="label"><foreignObject height="19" width="22.65625"><div style="display: inline-block; white-space: nowrap;" xmlns="http://www.w3.org/1999/xhtml"><span class="edgeLabel">Yes</span></div></foreignObject></g></g><g transform="translate(721.640625, 721.203125)" class="edgeLabel"><g transform="translate(-9.3984375, -9.5)" class="label"><foreignObject height="19" width="18.796875"><div style="display: inline-block; white-space: nowrap;" xmlns="http://www.w3.org/1999/xhtml"><span class="edgeLabel">No</span></div></foreignObject></g></g><g class="edgeLabel"><g transform="translate(0, 0)" class="label"><foreignObject height="0" width="0"><div style="display: inline-block; white-space: nowrap;" xmlns="http://www.w3.org/1999/xhtml"><span class="edgeLabel"></span></div></foreignObject></g></g><g class="edgeLabel"><g transform="translate(0, 0)" class="label"><foreignObject height="0" width="0"><div style="display: inline-block; white-space: nowrap;" xmlns="http://www.w3.org/1999/xhtml"><span class="edgeLabel"></span></div></foreignObject></g></g><g class="edgeLabel"><g transform="translate(0, 0)" class="label"><foreignObject height="0" width="0"><div style="display: inline-block; white-space: nowrap;" xmlns="http://www.w3.org/1999/xhtml"><span class="edgeLabel"></span></div></foreignObject></g></g><g class="edgeLabel"><g transform="translate(0, 0)" class="label"><foreignObject height="0" width="0"><div style="display: inline-block; white-space: nowrap;" xmlns="http://www.w3.org/1999/xhtml"><span class="edgeLabel"></span></div></foreignObject></g></g></g><g class="nodes"><g transform="translate(561.99609375, 26.5)" data-id="A" data-node="true" id="flowchart-A-0" class="node default default flowchart-label"><rect height="53" width="162.140625" y="-26.5" x="-81.0703125" ry="0" rx="0" style="fill:#e3f2fd;" class="basic label-container"/><g transform="translate(-73.5703125, -19)" style="" class="label"><rect/><foreignObject height="38" width="147.140625"><div style="display: inline-block; white-space: nowrap;" xmlns="http://www.w3.org/1999/xhtml"><span class="nodeLabel">POST /invocations<br />User Prompt or Alert</span></div></foreignObject></g></g><g transform="translate(561.99609375, 129.5)" data-id="B" data-node="true" id="flowchart-B-1" class="node default default flowchart-label"><rect height="53" width="190.875" y="-26.5" x="-95.4375" ry="0" rx="0" style="fill:#f3e5f5;" class="basic label-container"/><g transform="translate(-87.9375, -19)" style="" class="label"><rect/><foreignObject height="38" width="175.875"><div style="display: inline-block; white-space: nowrap;" xmlns="http://www.w3.org/1999/xhtml"><span class="nodeLabel">Initialize Graph State<br />Incident Context &amp; Tools</span></div></foreignObject></g></g><g transform="translate(561.99609375, 223)" data-id="C" data-node="true" id="flowchart-C-3" class="node default default flowchart-label"><rect height="34" width="200.65625" y="-17" x="-100.328125" ry="0" rx="0" style="fill:#fff3e0;" class="basic label-container"/><g transform="translate(-92.828125, -9.5)" style="" class="label"><rect/><foreignObject height="19" width="185.65625"><div style="display: inline-block; white-space: nowrap;" xmlns="http://www.w3.org/1999/xhtml"><span class="nodeLabel">Route to Specialist Agents</span></div></foreignObject></g></g><g transform="translate(84.2421875, 316.5)" data-id="D" data-node="true" id="flowchart-D-5" class="node default default flowchart-label"><rect height="53" width="168.484375" y="-26.5" x="-84.2421875" ry="0" rx="0" style="" class="basic label-container"/><g transform="translate(-76.7421875, -19)" style="" class="label"><rect/><foreignObject height="38" width="153.484375"><div style="display: inline-block; white-space: nowrap;" xmlns="http://www.w3.org/1999/xhtml"><span class="nodeLabel">Kubernetes Specialist<br />Cluster State</span></div></foreignObject></g></g><g transform="translate(288.359375, 316.5)" data-id="E" data-node="true" id="flowchart-E-7" class="node default default flowchart-label"><rect height="53" width="139.75" y="-26.5" x="-69.875" ry="0" rx="0" style="" class="basic label-container"/><g transform="translate(-62.375, -19)" style="" class="label"><rect/><foreignObject height="38" width="124.75"><div style="display: inline-block; white-space: nowrap;" xmlns="http://www.w3.org/1999/xhtml"><span class="nodeLabel">Metrics Specialist<br />Golden Signals</span></div></foreignObject></g></g><g transform="translate(467.90625, 316.5)" data-id="F" data-node="true" id="flowchart-F-9" class="node default default flowchart-label"><rect height="53" width="119.34375" y="-26.5" x="-59.671875" ry="0" rx="0" style="" class="basic label-container"/><g transform="translate(-52.171875, -19)" style="" class="label"><rect/><foreignObject height="38" width="104.34375"><div style="display: inline-block; white-space: nowrap;" xmlns="http://www.w3.org/1999/xhtml"><span class="nodeLabel">Logs Specialist<br />Error Traces</span></div></foreignObject></g></g><g transform="translate(664.9765625, 316.5)" data-id="G" data-node="true" id="flowchart-G-11" class="node default default flowchart-label"><rect height="53" width="174.796875" y="-26.5" x="-87.3984375" ry="0" rx="0" style="" class="basic label-container"/><g transform="translate(-79.8984375, -19)" style="" class="label"><rect/><foreignObject height="38" width="159.796875"><div style="display: inline-block; white-space: nowrap;" xmlns="http://www.w3.org/1999/xhtml"><span class="nodeLabel">Runbooks Specialist<br />Operational Playbooks</span></div></foreignObject></g></g><g transform="translate(871.375, 316.5)" data-id="H" data-node="true" id="flowchart-H-13" class="node default default flowchart-label"><rect height="53" width="138" y="-26.5" x="-69" ry="0" rx="0" style="" class="basic label-container"/><g transform="translate(-61.5, -19)" style="" class="label"><rect/><foreignObject height="38" width="123"><div style="display: inline-block; white-space: nowrap;" xmlns="http://www.w3.org/1999/xhtml"><span class="nodeLabel">GitHub Specialist<br />Code History</span></div></foreignObject></g></g><g transform="translate(467.90625, 438.5)" data-id="I" data-node="true" id="flowchart-I-15" class="node default default flowchart-label"><rect height="53" width="155.78125" y="-26.5" x="-77.890625" ry="0" rx="0" style="fill:#f3e5f5;" class="basic label-container"/><g transform="translate(-70.390625, -19)" style="" class="label"><rect/><foreignObject height="38" width="140.78125"><div style="display: inline-block; white-space: nowrap;" xmlns="http://www.w3.org/1999/xhtml"><span class="nodeLabel">Supervisor<br />Aggregate Evidence</span></div></foreignObject></g></g><g transform="translate(721.640625, 600.8515625)" data-id="J" data-node="true" id="flowchart-J-25" class="node default default flowchart-label"><polygon style="" transform="translate(-85.8515625,85.8515625)" class="label-container" points="85.8515625,0 171.703125,-85.8515625 85.8515625,-171.703125 0,-85.8515625"/><g transform="translate(-51.8515625, -19)" style="" class="label"><rect/><foreignObject height="38" width="103.703125"><div style="display: inline-block; white-space: nowrap;" xmlns="http://www.w3.org/1999/xhtml"><span class="nodeLabel">More Evidence<br />Needed?</span></div></foreignObject></g></g><g transform="translate(721.640625, 782.203125)" data-id="K" data-node="true" id="flowchart-K-29" class="node default default flowchart-label"><rect height="53" width="152.046875" y="-26.5" x="-76.0234375" ry="0" rx="0" style="fill:#e8f5e9;" class="basic label-container"/><g transform="translate(-68.5234375, -19)" style="" class="label"><rect/><foreignObject height="38" width="137.046875"><div style="display: inline-block; white-space: nowrap;" xmlns="http://www.w3.org/1999/xhtml"><span class="nodeLabel">Generate Summary<br />Executive Brief</span></div></foreignObject></g></g><g transform="translate(721.640625, 885.203125)" data-id="L" data-node="true" id="flowchart-L-31" class="node default default flowchart-label"><rect height="53" width="179.96875" y="-26.5" x="-89.984375" ry="0" rx="0" style="fill:#fce4ec;" class="basic label-container"/><g transform="translate(-82.484375, -19)" style="" class="label"><rect/><foreignObject height="38" width="164.96875"><div style="display: inline-block; white-space: nowrap;" xmlns="http://www.w3.org/1999/xhtml"><span class="nodeLabel">Persist Timeline Events<br />PostgreSQL</span></div></foreignObject></g></g><g transform="translate(721.640625, 988.203125)" data-id="M" data-node="true" id="flowchart-M-33" class="node default default flowchart-label"><rect height="53" width="170.171875" y="-26.5" x="-85.0859375" ry="0" rx="0" style="fill:#fce4ec;" class="basic label-container"/><g transform="translate(-77.5859375, -19)" style="" class="label"><rect/><foreignObject height="38" width="155.171875"><div style="display: inline-block; white-space: nowrap;" xmlns="http://www.w3.org/1999/xhtml"><span class="nodeLabel">Store Follow-up State<br />Redis</span></div></foreignObject></g></g><g transform="translate(721.640625, 1091.203125)" data-id="N" data-node="true" id="flowchart-N-35" class="node default default flowchart-label"><rect height="53" width="132.578125" y="-26.5" x="-66.2890625" ry="0" rx="0" style="fill:#e3f2fd;" class="basic label-container"/><g transform="translate(-58.7890625, -19)" style="" class="label"><rect/><foreignObject height="38" width="117.578125"><div style="display: inline-block; white-space: nowrap;" xmlns="http://www.w3.org/1999/xhtml"><span class="nodeLabel">Return Response<br />to Dashboard</span></div></foreignObject></g></g><g transform="translate(721.640625, 1194.203125)" data-id="O" data-node="true" id="flowchart-O-37" class="node default default flowchart-label"><rect height="53" width="152.453125" y="-26.5" x="-76.2265625" ry="0" rx="0" style="" class="basic label-container"/><g transform="translate(-68.7265625, -19)" style="" class="label"><rect/><foreignObject height="38" width="137.453125"><div style="display: inline-block; white-space: nowrap;" xmlns="http://www.w3.org/1999/xhtml"><span class="nodeLabel">Dashboard Updates<br />Incident Panel</span></div></foreignObject></g></g></g></g></g></svg>