<svg aria-roledescription="flowchart-v2" role="graphics-document document" viewBox="-8 -8 386.734375 2171.78125" style="max-width: 386.734px; background-color: white;" xmlns:xlink="http://www.w3.org/1999/xlink" xmlns="http://www.w3.org/2000/svg" width="100%" id="my-svg"><style>#my-svg{font-family:"trebuchet ms",verdana,arial,sans-serif;font-size:16px;fill:#ccc;}#my-svg .error-icon{fill:#a44141;}#my-svg .error-text{fill:#ddd;stroke:#ddd;}#my-svg .edge-thickness-normal{stroke-width:2px;}#my-svg .edge-thickness-thick{stroke-width:3.5px;}#my-svg .edge-pattern-solid{stroke-dasharray:0;}#my-svg .edge-pattern-dashed{stroke-dasharray:3;}#my-svg .edge-pattern-dotted{stroke-dasharray:2;}#my-svg .marker{fill:lightgrey;stroke:lightgrey;}#my-svg .marker.cross{stroke:lightgrey;}#my-svg svg{font-family:"trebuchet ms",verdana,arial,sans-serif;font-size:16px;}#my-svg .label{font-family:"trebuchet ms",verdana,arial,sans-serif;color:#ccc;}#my-svg .cluster-label text{fill:#F9FFFE;}#my-svg .cluster-label span,#my-svg p{color:#F9FFFE;}#my-svg .label text,#my-svg span,#my-svg p{fill:#ccc;color:#ccc;}#my-svg .node rect,#my-svg .node circle,#my-svg .node ellipse,#my-svg .node polygon,#my-svg .node path{fill:#1f2020;stroke:#81B1DB;stroke-width:1px;}#my-svg .flowchart-label text{text-anchor:middle;}#my-svg .node .katex path{fill:#000;stroke:#000;stroke-width:1px;}#my-svg .node .label{text-align:center;}#my-svg .node.clickable{cursor:pointer;}#my-svg .arrowheadPath{fill:lightgrey;}#my-svg .edgePath .path{stroke:lightgrey;stroke-width:2.0px;}#my-svg .flowchart-link{stroke:lightgrey;fill:none;}#my-svg .edgeLabel{background-color:hsl(0, 0%, 34.4117647059%);text-align:center;}#my-svg .edgeLabel rect{opacity:0.5;background-color:hsl(0, 0%, 34.4117647059%);fill:hsl(0, 0%, 34.4117647059%);}#my-svg .labelBkg{background-color:rgba(87.75, 87.75, 87.75, 0.5);}#my-svg .cluster rect{fill:hsl(180, 1.5873015873%, 28.3529411765%);stroke:rgba(255, 255, 255, 0.25);stroke-width:1px;}#my-svg .cluster text{fill:#F9FFFE;}#my-svg .cluster span,#my-svg p{color:#F9FFFE;}#my-svg div.mermaidTooltip{position:absolute;text-align:center;max-width:200px;padding:2px;font-family:"trebuchet ms",verdana,arial,sans-serif;font-size:12px;background:hsl(20, 1.5873015873%, 12.3529411765%);border:1px solid rgba(255, 255, 255, 0.25);border-radius:2px;pointer-events:none;z-index:100;}#my-svg .flowchartTitleText{text-anchor:middle;font-size:18px;fill:#ccc;}#my-svg :root{--mermaid-font-family:"trebuchet ms",verdana,arial,sans-serif;}</style><g><marker orient="auto" markerHeight="12" markerWidth="12" markerUnits="userSpaceOnUse" refY="5" refX="6" viewBox="0 0 10 10" class="marker flowchart" id="my-svg_flowchart-pointEnd"><path style="stroke-width: 1; stroke-dasharray: 1, 0;" class="arrowMarkerPath" d="M 0 0 L 10 5 L 0 10 z"/></marker><marker orient="auto" markerHeight="12" markerWidth="12" markerUnits="userSpaceOnUse" refY="5" refX="4.5" viewBox="0 0 10 10" class="marker flowchart" id="my-svg_flowchart-pointStart"><path style="stroke-width: 1; stroke-dasharray: 1, 0;" class="arrowMarkerPath" d="M 0 5 L 10 10 L 10 0 z"/></marker><marker orient="auto" markerHeight="11" markerWidth="11" markerUnits="userSpaceOnUse" refY="5" refX="11" viewBox="0 0 10 10" class="marker flowchart" id="my-svg_flowchart-circleEnd"><circle style="stroke-width: 1; stroke-dasharray: 1, 0;" class="arrowMarkerPath" r="5" cy="5" cx="5"/></marker><marker orient="auto" markerHeight="11" markerWidth="11" markerUnits="userSpaceOnUse" refY="5" refX="-1" viewBox="0 0 10 10" class="marker flowchart" id="my-svg_flowchart-circleStart"><circle style="stroke-width: 1; stroke-dasharray: 1, 0;" class="arrowMarkerPath" r="5" cy="5" cx="5"/></marker><marker orient="auto" markerHeight="11" markerWidth="11" markerUnits="userSpaceOnUse" refY="5.2" refX="12" viewBox="0 0 11 11" class="marker cross flowchart" id="my-svg_flowchart-crossEnd"><path style="stroke-width: 2; stroke-dasharray: 1, 0;" class="arrowMarkerPath" d="M 1,1 l 9,9 M 10,1 l -9,9"/></marker><marker orient="auto" markerHeight="11" markerWidth="11" markerUnits="userSpaceOnUse" refY="5.2" refX="-1" viewBox="0 0 11 11" class="marker cross flowchart" id="my-svg_flowchart-crossStart"><path style="stroke-width: 2; stroke-dasharray: 1, 0;" class="arrowMarkerPath" d="M 1,1 l 9,9 M 10,1 l -9,9"/></marker><g class="root"><g class="clusters"/><g class="edgePaths"><path marker-end="url(#my-svg_flowchart-pointEnd)" style="fill:none;" class="edge-thickness-normal edge-pattern-solid flowchart-link LS-Start LE-Check" id="L-Start-Check-0" d="M181.836,34L181.836,38.167C181.836,42.333,181.836,50.667,181.902,58.2C181.968,65.734,182.1,72.467,182.166,75.834L182.232,79.201"/><path marker-end="url(#my-svg_flowchart-pointEnd)" style="fill:none;" class="edge-thickness-normal edge-pattern-solid flowchart-link LS-Check LE-Redirect1" id="L-Check-Redirect1-0" d="M144.128,201.136L132.238,213.17C120.347,225.205,96.566,249.274,84.676,281.439C72.785,313.604,72.785,353.865,72.785,394.125C72.785,434.385,72.785,474.646,74.345,501.251C75.906,527.855,79.026,540.805,80.586,547.279L82.146,553.754"/><path marker-end="url(#my-svg_flowchart-pointEnd)" style="fill:none;" class="edge-thickness-normal edge-pattern-solid flowchart-link LS-Check LE-Validate" id="L-Check-Validate-0" d="M213.148,208.531L220.261,219.334C227.374,230.136,241.599,251.74,248.782,267.492C255.966,283.244,256.107,293.144,256.178,298.094L256.249,303.044"/><path marker-end="url(#my-svg_flowchart-pointEnd)" style="fill:none;" class="edge-thickness-normal edge-pattern-solid flowchart-link LS-Validate LE-Redirect1" id="L-Validate-Redirect1-0" d="M218.484,443.066L208.982,455.039C199.48,467.012,180.476,490.959,162.761,509.704C145.046,528.449,128.62,541.992,120.407,548.763L112.193,555.535"/><path marker-end="url(#my-svg_flowchart-pointEnd)" style="fill:none;" class="edge-thickness-normal edge-pattern-solid flowchart-link LS-Redirect1 LE-LoginPage" id="L-Redirect1-LoginPage-0" d="M87.484,592.906L87.484,598.656C87.484,604.406,87.484,615.906,87.484,630.24C87.484,644.573,87.484,661.74,87.484,678.906C87.484,696.073,87.484,713.24,87.484,731.99C87.484,750.74,87.484,771.073,87.484,791.406C87.484,811.74,87.484,832.073,87.484,850.823C87.484,869.573,87.484,886.74,87.484,903.906C87.484,921.073,87.484,938.24,87.484,955.406C87.484,972.573,87.484,989.74,87.484,1006.906C87.484,1024.073,87.484,1041.24,87.484,1058.406C87.484,1075.573,87.484,1092.74,87.484,1109.906C87.484,1127.073,87.484,1144.24,87.484,1159.823C87.484,1175.406,87.484,1189.406,87.484,1203.406C87.484,1217.406,87.484,1231.406,87.484,1246.99C87.484,1262.573,87.484,1279.74,87.484,1296.906C87.484,1314.073,87.484,1331.24,87.484,1346.823C87.484,1362.406,87.484,1376.406,87.484,1390.406C87.484,1404.406,87.484,1418.406,94.343,1429.15C101.201,1439.893,114.917,1447.38,121.776,1451.124L128.634,1454.867"/><path marker-end="url(#my-svg_flowchart-pointEnd)" style="fill:none;" class="edge-thickness-normal edge-pattern-solid flowchart-link LS-LoginPage LE-IsRegister" id="L-LoginPage-IsRegister-0" d="M181.836,1510.406L181.836,1514.573C181.836,1518.74,181.836,1527.073,181.902,1534.606C181.968,1542.14,182.1,1548.874,182.166,1552.24L182.232,1555.607"/><path marker-end="url(#my-svg_flowchart-pointEnd)" style="fill:none;" class="edge-thickness-normal edge-pattern-solid flowchart-link LS-IsRegister LE-Register" id="L-IsRegister-Register-0" d="M146.972,1670.917L135.855,1682.478C124.739,1694.038,102.506,1717.16,91.39,1733.587C80.273,1750.015,80.273,1759.748,80.273,1764.615L80.273,1769.481"/><path marker-end="url(#my-svg_flowchart-pointEnd)" style="fill:none;" class="edge-thickness-normal edge-pattern-solid flowchart-link LS-IsRegister LE-Login" id="L-IsRegister-Login-0" d="M217.7,1670.917L228.65,1682.478C239.6,1694.038,261.499,1717.16,272.449,1733.587C283.398,1750.015,283.398,1759.748,283.398,1764.615L283.398,1769.481"/><path marker-end="url(#my-svg_flowchart-pointEnd)" style="fill:none;" class="edge-thickness-normal edge-pattern-solid flowchart-link LS-Register LE-Token" id="L-Register-Token-0" d="M80.273,1827.781L80.273,1831.948C80.273,1836.115,80.273,1844.448,87.703,1852.382C95.132,1860.316,109.99,1867.85,117.419,1871.617L124.849,1875.384"/><path marker-end="url(#my-svg_flowchart-pointEnd)" style="fill:none;" class="edge-thickness-normal edge-pattern-solid flowchart-link LS-Login LE-Token" id="L-Login-Token-0" d="M283.398,1827.781L283.398,1831.948C283.398,1836.115,283.398,1844.448,275.969,1852.382C268.54,1860.316,253.682,1867.85,246.252,1871.617L238.823,1875.384"/><path marker-end="url(#my-svg_flowchart-pointEnd)" style="fill:none;" class="edge-thickness-normal edge-pattern-solid flowchart-link LS-Token LE-Store" id="L-Token-Store-0" d="M181.836,1930.781L181.836,1934.948C181.836,1939.115,181.836,1947.448,181.836,1954.898C181.836,1962.348,181.836,1968.915,181.836,1972.198L181.836,1975.481"/><path marker-end="url(#my-svg_flowchart-pointEnd)" style="fill:none;" class="edge-thickness-normal edge-pattern-solid flowchart-link LS-Store LE-AuthContext" id="L-Store-AuthContext-0" d="M181.836,2033.781L181.836,2037.948C181.836,2042.115,181.836,2050.448,181.836,2057.898C181.836,2065.348,181.836,2071.915,181.836,2075.198L181.836,2078.481"/><path marker-end="url(#my-svg_flowchart-pointEnd)" style="fill:none;" class="edge-thickness-normal edge-pattern-solid flowchart-link LS-Validate LE-Auth" id="L-Validate-Auth-0" d="M268.772,468.458L270.008,476.2C271.244,483.941,273.716,499.424,274.952,512.032C276.188,524.64,276.188,534.373,276.188,539.24L276.188,544.106"/><path marker-end="url(#my-svg_flowchart-pointEnd)" style="fill:none;" class="edge-thickness-normal edge-pattern-solid flowchart-link LS-Auth LE-Protected" id="L-Auth-Protected-0" d="M276.188,602.406L276.188,606.573C276.188,610.74,276.188,619.073,276.188,626.523C276.188,633.973,276.188,640.54,276.188,643.823L276.188,647.106"/><path marker-end="url(#my-svg_flowchart-pointEnd)" style="fill:none;" class="edge-thickness-normal edge-pattern-solid flowchart-link LS-Protected LE-API" id="L-Protected-API-0" d="M276.188,705.406L276.188,709.573C276.188,713.74,276.188,722.073,276.188,729.523C276.188,736.973,276.188,743.54,276.188,746.823L276.188,750.106"/><path marker-end="url(#my-svg_flowchart-pointEnd)" style="fill:none;" class="edge-thickness-normal edge-pattern-solid flowchart-link LS-API LE-Backend" id="L-API-Backend-0" d="M276.188,827.406L276.188,831.573C276.188,835.74,276.188,844.073,276.188,851.523C276.188,858.973,276.188,865.54,276.188,868.823L276.188,872.106"/><path marker-end="url(#my-svg_flowchart-pointEnd)" style="fill:none;" class="edge-thickness-normal edge-pattern-solid flowchart-link LS-Backend LE-Response" id="L-Backend-Response-0" d="M276.188,930.406L276.188,934.573C276.188,938.74,276.188,947.073,276.188,954.523C276.188,961.973,276.188,968.54,276.188,971.823L276.188,975.106"/><path marker-end="url(#my-svg_flowchart-pointEnd)" style="fill:none;" class="edge-thickness-normal edge-pattern-solid flowchart-link LS-Response LE-UI" id="L-Response-UI-0" d="M276.188,1033.406L276.188,1037.573C276.188,1041.74,276.188,1050.073,276.188,1057.523C276.188,1064.973,276.188,1071.54,276.188,1074.823L276.188,1078.106"/><path marker-end="url(#my-svg_flowchart-pointEnd)" style="fill:none;" class="edge-thickness-normal edge-pattern-solid flowchart-link LS-UI LE-Logout" id="L-UI-Logout-0" d="M276.188,1136.406L276.188,1140.573C276.188,1144.74,276.188,1153.073,276.188,1160.523C276.188,1167.973,276.188,1174.54,276.188,1177.823L276.188,1181.106"/><path marker-end="url(#my-svg_flowchart-pointEnd)" style="fill:none;" class="edge-thickness-normal edge-pattern-solid flowchart-link LS-Logout LE-Clear" id="L-Logout-Clear-0" d="M276.188,1220.406L276.188,1224.573C276.188,1228.74,276.188,1237.073,276.188,1244.523C276.188,1251.973,276.188,1258.54,276.188,1261.823L276.188,1265.106"/><path marker-end="url(#my-svg_flowchart-pointEnd)" style="fill:none;" class="edge-thickness-normal edge-pattern-solid flowchart-link LS-Clear LE-Redirect2" id="L-Clear-Redirect2-0" d="M276.188,1323.406L276.188,1327.573C276.188,1331.74,276.188,1340.073,276.188,1347.523C276.188,1354.973,276.188,1361.54,276.188,1364.823L276.188,1368.106"/><path marker-end="url(#my-svg_flowchart-pointEnd)" style="fill:none;" class="edge-thickness-normal edge-pattern-solid flowchart-link LS-Redirect2 LE-LoginPage" id="L-Redirect2-LoginPage-0" d="M276.188,1407.406L276.188,1411.573C276.188,1415.74,276.188,1424.073,269.329,1431.983C262.471,1439.893,248.754,1447.38,241.896,1451.124L235.038,1454.867"/></g><g class="edgeLabels"><g class="edgeLabel"><g transform="translate(0, 0)" class="label"><foreignObject height="0" width="0"><div style="display: inline-block; white-space: nowrap;" xmlns="http://www.w3.org/1999/xhtml"><span class="edgeLabel"></span></div></foreignObject></g></g><g transform="translate(72.78515625, 394.125)" class="edgeLabel"><g transform="translate(-9.3984375, -9.5)" class="label"><foreignObject height="19" width="18.796875"><div style="display: inline-block; white-space: nowrap;" xmlns="http://www.w3.org/1999/xhtml"><span class="edgeLabel">No</span></div></foreignObject></g></g><g transform="translate(255.82421875, 273.34375)" class="edgeLabel"><g transform="translate(-11.328125, -9.5)" class="label"><foreignObject height="19" width="22.65625"><div style="display: inline-block; white-space: nowrap;" xmlns="http://www.w3.org/1999/xhtml"><span class="edgeLabel">Yes</span></div></foreignObject></g></g><g transform="translate(161.47265625, 514.90625)" class="edgeLabel"><g transform="translate(-9.3984375, -9.5)" class="label"><foreignObject height="19" width="18.796875"><div style="display: inline-block; white-space: nowrap;" xmlns="http://www.w3.org/1999/xhtml"><span class="edgeLabel">No</span></div></foreignObject></g></g><g class="edgeLabel"><g transform="translate(0, 0)" class="label"><foreignObject height="0" width="0"><div style="display: inline-block; white-space: nowrap;" xmlns="http://www.w3.org/1999/xhtml"><span class="edgeLabel"></span></div></foreignObject></g></g><g class="edgeLabel"><g transform="translate(0, 0)" class="label"><foreignObject height="0" width="0"><div style="display: inline-block; white-space: nowrap;" xmlns="http://www.w3.org/1999/xhtml"><span class="edgeLabel"></span></div></foreignObject></g></g><g transform="translate(80.2734375, 1740.28125)" class="edgeLabel"><g transform="translate(-28.875, -9.5)" class="label"><foreignObject height="19" width="57.75"><div style="display: inline-block; white-space: nowrap;" xmlns="http://www.w3.org/1999/xhtml"><span class="edgeLabel">Register</span></div></foreignObject></g></g><g transform="translate(283.3984375, 1740.28125)" class="edgeLabel"><g transform="translate(-19.015625, -9.5)" class="label"><foreignObject height="19" width="38.03125"><div style="display: inline-block; white-space: nowrap;" xmlns="http://www.w3.org/1999/xhtml"><span class="edgeLabel">Login</span></div></foreignObject></g></g><g class="edgeLabel"><g transform="translate(0, 0)" class="label"><foreignObject height="0" width="0"><div style="display: inline-block; white-space: nowrap;" xmlns="http://www.w3.org/1999/xhtml"><span class="edgeLabel"></span></div></foreignObject></g></g><g class="edgeLabel"><g transform="translate(0, 0)" class="label"><foreignObject height="0" width="0"><div style="display: inline-block; white-space: nowrap;" xmlns="http://www.w3.org/1999/xhtml"><span class="edgeLabel"></span></div></foreignObject></g></g><g class="edgeLabel"><g transform="translate(0, 0)" class="label"><foreignObject height="0" width="0"><div style="display: inline-block; white-space: nowrap;" xmlns="http://www.w3.org/1999/xhtml"><span class="edgeLabel"></span></div></foreignObject></g></g><g class="edgeLabel"><g transform="translate(0, 0)" class="label"><foreignObject height="0" width="0"><div style="display: inline-block; white-space: nowrap;" xmlns="http://www.w3.org/1999/xhtml"><span class="edgeLabel"></span></div></foreignObject></g></g><g transform="translate(276.1875, 514.90625)" class="edgeLabel"><g transform="translate(-11.328125, -9.5)" class="label"><foreignObject height="19" width="22.65625"><div style="display: inline-block; white-space: nowrap;" xmlns="http://www.w3.org/1999/xhtml"><span class="edgeLabel">Yes</span></div></foreignObject></g></g><g class="edgeLabel"><g transform="translate(0, 0)" class="label"><foreignObject height="0" width="0"><div style="display: inline-block; white-space: nowrap;" xmlns="http://www.w3.org/1999/xhtml"><span class="edgeLabel"></span></div></foreignObject></g></g><g class="edgeLabel"><g transform="translate(0, 0)" class="label"><foreignObject height="0" width="0"><div style="display: inline-block; white-space: nowrap;" xmlns="http://www.w3.org/1999/xhtml"><span class="edgeLabel"></span></div></foreignObject></g></g><g class="edgeLabel"><g transform="translate(0, 0)" class="label"><foreignObject height="0" width="0"><div style="display: inline-block; white-space: nowrap;" xmlns="http://www.w3.org/1999/xhtml"><span class="edgeLabel"></span></div></foreignObject></g></g><g class="edgeLabel"><g transform="translate(0, 0)" class="label"><foreignObject height="0" width="0"><div style="display: inline-block; white-space: nowrap;" xmlns="http://www.w3.org/1999/xhtml"><span class="edgeLabel"></span></div></foreignObject></g></g><g class="edgeLabel"><g transform="translate(0, 0)" class="label"><foreignObject height="0" width="0"><div style="display: inline-block; white-space: nowrap;" xmlns="http://www.w3.org/1999/xhtml"><span class="edgeLabel"></span></div></foreignObject></g></g><g class="edgeLabel"><g transform="translate(0, 0)" class="label"><foreignObject height="0" width="0"><div style="display: inline-block; white-space: nowrap;" xmlns="http://www.w3.org/1999/xhtml"><span class="edgeLabel"></span></div></foreignObject></g></g><g class="edgeLabel"><g transform="translate(0, 0)" class="label"><foreignObject height="0" width="0"><div style="display: inline-block; white-space: nowrap;" xmlns="http://www.w3.org/1999/xhtml"><span class="edgeLabel"></span></div></foreignObject></g></g><g class="edgeLabel"><g transform="translate(0, 0)" class="label"><foreignObject height="0" width="0"><div style="display: inline-block; white-space: nowrap;" xmlns="http://www.w3.org/1999/xhtml"><span class="edgeLabel"></span></div></foreignObject></g></g><g class="edgeLabel"><g transform="translate(0, 0)" class="label"><foreignObject height="0" width="0"><div style="display: inline-block; white-space: nowrap;" xmlns="http://www.w3.org/1999/xhtml"><span class="edgeLabel"></span></div></foreignObject></g></g></g><g class="nodes"><g transform="translate(181.8359375, 17)" data-id="Start" data-node="true" id="flowchart-Start-0" class="node default default flowchart-label"><rect height="34" width="196.640625" y="-17" x="-98.3203125" ry="0" rx="0" style="fill:#e3f2fd;" class="basic label-container"/><g transform="translate(-90.8203125, -9.5)" style="" class="label"><rect/><foreignObject height="19" width="181.640625"><div style="display: inline-block; white-space: nowrap;" xmlns="http://www.w3.org/1999/xhtml"><span class="nodeLabel">User visits localhost:3000</span></div></foreignObject></g></g><g transform="translate(181.8359375, 161.421875)" data-id="Check" data-node="true" id="flowchart-Check-1" class="node default default flowchart-label"><polygon style="" transform="translate(-77.421875,77.421875)" class="label-container" points="77.421875,0 154.84375,-77.421875 77.421875,-154.84375 0,-77.421875"/><g transform="translate(-43.421875, -19)" style="" class="label"><rect/><foreignObject height="38" width="86.84375"><div style="display: inline-block; white-space: nowrap;" xmlns="http://www.w3.org/1999/xhtml"><span class="nodeLabel">Token exists<br />in cookie?</span></div></foreignObject></g></g><g transform="translate(87.484375, 575.90625)" data-id="Redirect1" data-node="true" id="flowchart-Redirect1-3" class="node default default flowchart-label"><rect height="34" width="142.6875" y="-17" x="-71.34375" ry="0" rx="0" style="" class="basic label-container"/><g transform="translate(-63.84375, -9.5)" style="" class="label"><rect/><foreignObject height="19" width="127.6875"><div style="display: inline-block; white-space: nowrap;" xmlns="http://www.w3.org/1999/xhtml"><span class="nodeLabel">Redirect to /login</span></div></foreignObject></g></g><g transform="translate(255.82421875, 394.125)" data-id="Validate" data-node="true" id="flowchart-Validate-5" class="node default default flowchart-label"><polygon style="" transform="translate(-86.28125,86.28125)" class="label-container" points="86.28125,0 172.5625,-86.28125 86.28125,-172.5625 0,-86.28125"/><g transform="translate(-52.28125, -19)" style="" class="label"><rect/><foreignObject height="38" width="104.5625"><div style="display: inline-block; white-space: nowrap;" xmlns="http://www.w3.org/1999/xhtml"><span class="nodeLabel">Token valid<br />&amp; not expired?</span></div></foreignObject></g></g><g transform="translate(181.8359375, 1483.90625)" data-id="LoginPage" data-node="true" id="flowchart-LoginPage-9" class="node default default flowchart-label"><rect height="53" width="107.84375" y="-26.5" x="-53.921875" ry="0" rx="0" style="fill:#fff3e0;" class="basic label-container"/><g transform="translate(-46.421875, -19)" style="" class="label"><rect/><foreignObject height="38" width="92.84375"><div style="display: inline-block; white-space: nowrap;" xmlns="http://www.w3.org/1999/xhtml"><span class="nodeLabel">Login Page<br />renders form</span></div></foreignObject></g></g><g transform="translate(181.8359375, 1633.09375)" data-id="IsRegister" data-node="true" id="flowchart-IsRegister-11" class="node default default flowchart-label"><polygon style="" transform="translate(-72.6875,72.6875)" class="label-container" points="72.6875,0 145.375,-72.6875 72.6875,-145.375 0,-72.6875"/><g transform="translate(-38.6875, -19)" style="" class="label"><rect/><foreignObject height="38" width="77.375"><div style="display: inline-block; white-space: nowrap;" xmlns="http://www.w3.org/1999/xhtml"><span class="nodeLabel">Register or<br />Login?</span></div></foreignObject></g></g><g transform="translate(80.2734375, 1801.28125)" data-id="Register" data-node="true" id="flowchart-Register-13" class="node default default flowchart-label"><rect height="53" width="160.546875" y="-26.5" x="-80.2734375" ry="0" rx="0" style="" class="basic label-container"/><g transform="translate(-72.7734375, -19)" style="" class="label"><rect/><foreignObject height="38" width="145.546875"><div style="display: inline-block; white-space: nowrap;" xmlns="http://www.w3.org/1999/xhtml"><span class="nodeLabel">POST /auth/register<br />Create org &amp; user</span></div></foreignObject></g></g><g transform="translate(283.3984375, 1801.28125)" data-id="Login" data-node="true" id="flowchart-Login-15" class="node default default flowchart-label"><rect height="53" width="145.703125" y="-26.5" x="-72.8515625" ry="0" rx="0" style="" class="basic label-container"/><g transform="translate(-65.3515625, -19)" style="" class="label"><rect/><foreignObject height="38" width="130.703125"><div style="display: inline-block; white-space: nowrap;" xmlns="http://www.w3.org/1999/xhtml"><span class="nodeLabel">POST /auth/token<br />Verify credentials</span></div></foreignObject></g></g><g transform="translate(181.8359375, 1904.28125)" data-id="Token" data-node="true" id="flowchart-Token-17" class="node default default flowchart-label"><rect height="53" width="158" y="-26.5" x="-79" ry="0" rx="0" style="fill:#e8f5e9;" class="basic label-container"/><g transform="translate(-71.5, -19)" style="" class="label"><rect/><foreignObject height="38" width="143"><div style="display: inline-block; white-space: nowrap;" xmlns="http://www.w3.org/1999/xhtml"><span class="nodeLabel">JWT token returned<br />+ org metadata</span></div></foreignObject></g></g><g transform="translate(181.8359375, 2007.28125)" data-id="Store" data-node="true" id="flowchart-Store-21" class="node default default flowchart-label"><rect height="53" width="163.875" y="-26.5" x="-81.9375" ry="0" rx="0" style="" class="basic label-container"/><g transform="translate(-74.4375, -19)" style="" class="label"><rect/><foreignObject height="38" width="148.875"><div style="display: inline-block; white-space: nowrap;" xmlns="http://www.w3.org/1999/xhtml"><span class="nodeLabel">Store in localStorage<br />&amp; httpOnly cookie</span></div></foreignObject></g></g><g transform="translate(181.8359375, 2119.78125)" data-id="AuthContext" data-node="true" id="flowchart-AuthContext-23" class="node default default flowchart-label"><rect height="72" width="137.515625" y="-36" x="-68.7578125" ry="0" rx="0" style="fill:#f3e5f5;" class="basic label-container"/><g transform="translate(-61.2578125, -28.5)" style="" class="label"><rect/><foreignObject height="57" width="122.515625"><div style="display: inline-block; white-space: nowrap;" xmlns="http://www.w3.org/1999/xhtml"><span class="nodeLabel">AuthProvider<br />decodes JWT<br />sets user context</span></div></foreignObject></g></g><g transform="translate(276.1875, 575.90625)" data-id="Auth" data-node="true" id="flowchart-Auth-25" class="node default default flowchart-label"><rect height="53" width="134.71875" y="-26.5" x="-67.359375" ry="0" rx="0" style="" class="basic label-container"/><g transform="translate(-59.859375, -19)" style="" class="label"><rect/><foreignObject height="38" width="119.71875"><div style="display: inline-block; white-space: nowrap;" xmlns="http://www.w3.org/1999/xhtml"><span class="nodeLabel">Authenticated<br />context restored</span></div></foreignObject></g></g><g transform="translate(276.1875, 678.90625)" data-id="Protected" data-node="true" id="flowchart-Protected-27" class="node default default flowchart-label"><rect height="53" width="189.09375" y="-26.5" x="-94.546875" ry="0" rx="0" style="fill:#e3f2fd;" class="basic label-container"/><g transform="translate(-87.046875, -19)" style="" class="label"><rect/><foreignObject height="38" width="174.09375"><div style="display: inline-block; white-space: nowrap;" xmlns="http://www.w3.org/1999/xhtml"><span class="nodeLabel">Access Protected Routes<br />/clusters, /incidents</span></div></foreignObject></g></g><g transform="translate(276.1875, 791.40625)" data-id="API" data-node="true" id="flowchart-API-29" class="node default default flowchart-label"><rect height="72" width="171.265625" y="-36" x="-85.6328125" ry="0" rx="0" style="" class="basic label-container"/><g transform="translate(-78.1328125, -28.5)" style="" class="label"><rect/><foreignObject height="57" width="156.265625"><div style="display: inline-block; white-space: nowrap;" xmlns="http://www.w3.org/1999/xhtml"><span class="nodeLabel">api() helper<br />includes Bearer token<br />in requests</span></div></foreignObject></g></g><g transform="translate(276.1875, 903.90625)" data-id="Backend" data-node="true" id="flowchart-Backend-31" class="node default default flowchart-label"><rect height="53" width="144.046875" y="-26.5" x="-72.0234375" ry="0" rx="0" style="" class="basic label-container"/><g transform="translate(-64.5234375, -19)" style="" class="label"><rect/><foreignObject height="38" width="129.046875"><div style="display: inline-block; white-space: nowrap;" xmlns="http://www.w3.org/1999/xhtml"><span class="nodeLabel">Backend validates<br />token &amp; org_id</span></div></foreignObject></g></g><g transform="translate(276.1875, 1006.90625)" data-id="Response" data-node="true" id="flowchart-Response-33" class="node default default flowchart-label"><rect height="53" width="111.953125" y="-26.5" x="-55.9765625" ry="0" rx="0" style="" class="basic label-container"/><g transform="translate(-48.4765625, -19)" style="" class="label"><rect/><foreignObject height="38" width="96.953125"><div style="display: inline-block; white-space: nowrap;" xmlns="http://www.w3.org/1999/xhtml"><span class="nodeLabel">Return data<br />scoped to org</span></div></foreignObject></g></g><g transform="translate(276.1875, 1109.90625)" data-id="UI" data-node="true" id="flowchart-UI-35" class="node default default flowchart-label"><rect height="53" width="180.5" y="-26.5" x="-90.25" ry="0" rx="0" style="" class="basic label-container"/><g transform="translate(-82.75, -19)" style="" class="label"><rect/><foreignObject height="38" width="165.5"><div style="display: inline-block; white-space: nowrap;" xmlns="http://www.w3.org/1999/xhtml"><span class="nodeLabel">Dashboard displays<br />cluster &amp; incident data</span></div></foreignObject></g></g><g transform="translate(276.1875, 1203.40625)" data-id="Logout" data-node="true" id="flowchart-Logout-37" class="node default default flowchart-label"><rect height="34" width="144.5" y="-17" x="-72.25" ry="0" rx="0" style="fill:#ffebee;" class="basic label-container"/><g transform="translate(-64.75, -9.5)" style="" class="label"><rect/><foreignObject height="19" width="129.5"><div style="display: inline-block; white-space: nowrap;" xmlns="http://www.w3.org/1999/xhtml"><span class="nodeLabel">User clicks Logout</span></div></foreignObject></g></g><g transform="translate(276.1875, 1296.90625)" data-id="Clear" data-node="true" id="flowchart-Clear-39" class="node default default flowchart-label"><rect height="53" width="174" y="-26.5" x="-87" ry="0" rx="0" style="" class="basic label-container"/><g transform="translate(-79.5, -19)" style="" class="label"><rect/><foreignObject height="38" width="159"><div style="display: inline-block; white-space: nowrap;" xmlns="http://www.w3.org/1999/xhtml"><span class="nodeLabel">Clear token<br />from storage &amp; cookie</span></div></foreignObject></g></g><g transform="translate(276.1875, 1390.40625)" data-id="Redirect2" data-node="true" id="flowchart-Redirect2-41" class="node default default flowchart-label"><rect height="34" width="142.6875" y="-17" x="-71.34375" ry="0" rx="0" style="" class="basic label-container"/><g transform="translate(-63.84375, -9.5)" style="" class="label"><rect/><foreignObject height="19" width="127.6875"><div style="display: inline-block; white-space: nowrap;" xmlns="http://www.w3.org/1999/xhtml"><span class="nodeLabel">Redirect to /login</span></div></foreignObject></g></g></g></g></g></svg>