<svg aria-roledescription="flowchart-v2" role="graphics-document document" viewBox="-8 -8 921.5703125 870" style="max-width: 921.57px; background-color: white;" xmlns:xlink="http://www.w3.org/1999/xlink" xmlns="http://www.w3.org/2000/svg" width="100%" id="my-svg"><style>#my-svg{font-family:"trebuchet ms",verdana,arial,sans-serif;font-size:16px;fill:#ccc;}#my-svg .error-icon{fill:#a44141;}#my-svg .error-text{fill:#ddd;stroke:#ddd;}#my-svg .edge-thickness-normal{stroke-width:2px;}#my-svg .edge-thickness-thick{stroke-width:3.5px;}#my-svg .edge-pattern-solid{stroke-dasharray:0;}#my-svg .edge-pattern-dashed{stroke-dasharray:3;}#my-svg .edge-pattern-dotted{stroke-dasharray:2;}#my-svg .marker{fill:lightgrey;stroke:lightgrey;}#my-svg .marker.cross{stroke:lightgrey;}#my-svg svg{font-family:"trebuchet ms",verdana,arial,sans-serif;font-size:16px;}#my-svg .label{font-family:"trebuchet ms",verdana,arial,sans-serif;color:#ccc;}#my-svg .cluster-label text{fill:#F9FFFE;}#my-svg .cluster-label span,#my-svg p{color:#F9FFFE;}#my-svg .label text,#my-svg span,#my-svg p{fill:#ccc;color:#ccc;}#my-svg .node rect,#my-svg .node circle,#my-svg .node ellipse,#my-svg .node polygon,#my-svg .node path{fill:#1f2020;stroke:#81B1DB;stroke-width:1px;}#my-svg .flowchart-label text{text-anchor:middle;}#my-svg .node .katex path{fill:#000;stroke:#000;stroke-width:1px;}#my-svg .node .label{text-align:center;}#my-svg .node.clickable{cursor:pointer;}#my-svg .arrowheadPath{fill:lightgrey;}#my-svg .edgePath .path{stroke:lightgrey;stroke-width:2.0px;}#my-svg .flowchart-link{stroke:lightgrey;fill:none;}#my-svg .edgeLabel{background-color:hsl(0, 0%, 34.4117647059%);text-align:center;}#my-svg .edgeLabel rect{opacity:0.5;background-color:hsl(0, 0%, 34.4117647059%);fill:hsl(0, 0%, 34.4117647059%);}#my-svg .labelBkg{background-color:rgba(87.75, 87.75, 87.75, 0.5);}#my-svg .cluster rect{fill:hsl(180, 1.5873015873%, 28.3529411765%);stroke:rgba(255, 255, 255, 0.25);stroke-width:1px;}#my-svg .cluster text{fill:#F9FFFE;}#my-svg .cluster span,#my-svg p{color:#F9FFFE;}#my-svg div.mermaidTooltip{position:absolute;text-align:center;max-width:200px;padding:2px;font-family:"trebuchet ms",verdana,arial,sans-serif;font-size:12px;background:hsl(20, 1.5873015873%, 12.3529411765%);border:1px solid rgba(255, 255, 255, 0.25);border-radius:2px;pointer-events:none;z-index:100;}#my-svg .flowchartTitleText{text-anchor:middle;font-size:18px;fill:#ccc;}#my-svg :root{--mermaid-font-family:"trebuchet ms",verdana,arial,sans-serif;}</style><g><marker orient="auto" markerHeight="12" markerWidth="12" markerUnits="userSpaceOnUse" refY="5" refX="6" viewBox="0 0 10 10" class="marker flowchart" id="my-svg_flowchart-pointEnd"><path style="stroke-width: 1; stroke-dasharray: 1, 0;" class="arrowMarkerPath" d="M 0 0 L 10 5 L 0 10 z"/></marker><marker orient="auto" markerHeight="12" markerWidth="12" markerUnits="userSpaceOnUse" refY="5" refX="4.5" viewBox="0 0 10 10" class="marker flowchart" id="my-svg_flowchart-pointStart"><path style="stroke-width: 1; stroke-dasharray: 1, 0;" class="arrowMarkerPath" d="M 0 5 L 10 10 L 10 0 z"/></marker><marker orient="auto" markerHeight="11" markerWidth="11" markerUnits="userSpaceOnUse" refY="5" refX="11" viewBox="0 0 10 10" class="marker flowchart" id="my-svg_flowchart-circleEnd"><circle style="stroke-width: 1; stroke-dasharray: 1, 0;" class="arrowMarkerPath" r="5" cy="5" cx="5"/></marker><marker orient="auto" markerHeight="11" markerWidth="11" markerUnits="userSpaceOnUse" refY="5" refX="-1" viewBox="0 0 10 10" class="marker flowchart" id="my-svg_flowchart-circleStart"><circle style="stroke-width: 1; stroke-dasharray: 1, 0;" class="arrowMarkerPath" r="5" cy="5" cx="5"/></marker><marker orient="auto" markerHeight="11" markerWidth="11" markerUnits="userSpaceOnUse" refY="5.2" refX="12" viewBox="0 0 11 11" class="marker cross flowchart" id="my-svg_flowchart-crossEnd"><path style="stroke-width: 2; stroke-dasharray: 1, 0;" class="arrowMarkerPath" d="M 1,1 l 9,9 M 10,1 l -9,9"/></marker><marker orient="auto" markerHeight="11" markerWidth="11" markerUnits="userSpaceOnUse" refY="5.2" refX="-1" viewBox="0 0 11 11" class="marker cross flowchart" id="my-svg_flowchart-crossStart"><path style="stroke-width: 2; stroke-dasharray: 1, 0;" class="arrowMarkerPath" d="M 1,1 l 9,9 M 10,1 l -9,9"/></marker><g class="root"><g class="clusters"><g id="Audit" class="cluster default flowchart-label"><rect height="421" width="181.953125" y="433" x="0" ry="0" rx="0" style=""/><g transform="translate(19.7890625, 433)" class="cluster-label"><foreignObject height="19" width="142.375"><div style="display: inline-block; white-space: nowrap;" xmlns="http://www.w3.org/1999/xhtml"><span class="nodeLabel">Audit &amp; Compliance</span></div></foreignObject></g></g><g id="Incident" class="cluster default flowchart-label"><rect height="421" width="279.390625" y="433" x="626.1796875" ry="0" rx="0" style=""/><g transform="translate(695.375, 433)" class="cluster-label"><foreignObject height="19" width="141"><div style="display: inline-block; white-space: nowrap;" xmlns="http://www.w3.org/1999/xhtml"><span class="nodeLabel">Incident &amp; Timeline</span></div></foreignObject></g></g><g id="Cluster" class="cluster default flowchart-label"><rect height="427" width="360.6640625" y="185" x="245.515625" ry="0" rx="0" style=""/><g transform="translate(340.24609375, 185)" class="cluster-label"><foreignObject height="19" width="171.203125"><div style="display: inline-block; white-space: nowrap;" xmlns="http://www.w3.org/1999/xhtml"><span class="nodeLabel">Cluster &amp; Infrastructure</span></div></foreignObject></g></g><g id="Org" class="cluster default flowchart-label"><rect height="364" width="225.33203125" y="0" x="0.18359375" ry="0" rx="0" style=""/><g transform="translate(19.568359375, 0)" class="cluster-label"><foreignObject height="19" width="186.5625"><div style="display: inline-block; white-space: nowrap;" xmlns="http://www.w3.org/1999/xhtml"><span class="nodeLabel">Organization Management</span></div></foreignObject></g></g></g><g class="edgePaths"><path marker-end="url(#my-svg_flowchart-pointEnd)" style="fill:none;" class="edge-thickness-normal edge-pattern-solid flowchart-link LS-ORGANIZATION LE-CLUSTER" id="L-ORGANIZATION-CLUSTER-0" d="M141.985,116L144.776,121.75C147.566,127.5,153.146,139,155.936,150.5C158.727,162,158.727,173.5,206.493,191.392C254.259,209.284,349.792,233.568,397.558,245.709L445.324,257.851"/><path marker-end="url(#my-svg_flowchart-pointEnd)" style="fill:none;" class="edge-thickness-normal edge-pattern-solid flowchart-link LS-ORGANIZATION LE-USER" id="L-ORGANIZATION-USER-0" d="M103.452,116L101.373,121.75C99.294,127.5,95.135,139,93.056,150.5C90.977,162,90.977,173.5,90.977,184.117C90.977,194.733,90.977,204.467,90.977,209.333L90.977,214.2"/><path marker-end="url(#my-svg_flowchart-pointEnd)" style="fill:none;" class="edge-thickness-normal edge-pattern-solid flowchart-link LS-USER LE-AUDITLOG" id="L-USER-AUDITLOG-0" d="M90.977,329.5L90.977,335.25C90.977,341,90.977,352.5,90.977,364C90.977,375.5,90.977,387,90.977,398.5C90.977,410,90.977,421.5,90.977,432.117C90.977,442.733,90.977,452.467,90.977,457.333L90.977,462.2"/><path marker-end="url(#my-svg_flowchart-pointEnd)" style="fill:none;" class="edge-thickness-normal edge-pattern-solid flowchart-link LS-CLUSTER LE-INCIDENT" id="L-CLUSTER-INCIDENT-0" d="M554.562,339L557.387,343.167C560.213,347.333,565.864,355.667,568.69,365.583C571.516,375.5,571.516,387,571.516,398.5C571.516,410,571.516,421.5,592.265,436.805C613.015,452.11,654.515,471.22,675.264,480.775L696.014,490.33"/><path marker-end="url(#my-svg_flowchart-pointEnd)" style="fill:none;" class="edge-thickness-normal edge-pattern-solid flowchart-link LS-CLUSTER LE-JOB" id="L-CLUSTER-JOB-0" d="M450.461,306.24L432.154,315.866C413.846,325.493,377.232,344.747,358.924,360.123C340.617,375.5,340.617,387,340.617,398.5C340.617,410,340.617,421.5,340.617,430.533C340.617,439.567,340.617,446.133,340.617,449.417L340.617,452.7"/><path marker-end="url(#my-svg_flowchart-pointEnd)" style="fill:none;" class="edge-thickness-normal edge-pattern-solid flowchart-link LS-CLUSTER LE-SLO" id="L-CLUSTER-SLO-0" d="M510.82,339L510.82,343.167C510.82,347.333,510.82,355.667,510.82,365.583C510.82,375.5,510.82,387,510.82,398.5C510.82,410,510.82,421.5,510.82,432.117C510.82,442.733,510.82,452.467,510.82,457.333L510.82,462.2"/><path marker-end="url(#my-svg_flowchart-pointEnd)" style="fill:none;" class="edge-thickness-normal edge-pattern-solid flowchart-link LS-INCIDENT LE-TIMELINE" id="L-INCIDENT-TIMELINE-0" d="M765.875,577.5L765.875,583.25C765.875,589,765.875,600.5,765.875,612C765.875,623.5,765.875,635,765.875,645.617C765.875,656.233,765.875,665.967,765.875,670.833L765.875,675.7"/><path marker-end="url(#my-svg_flowchart-pointEnd)" style="fill:none;" class="edge-thickness-normal edge-pattern-solid flowchart-link LS-AUDITLOG LE-AUDITEVENT" id="L-AUDITLOG-AUDITEVENT-0" d="M90.977,577.5L90.977,583.25C90.977,589,90.977,600.5,90.977,612C90.977,623.5,90.977,635,90.977,650.367C90.977,665.733,90.977,684.967,90.977,694.583L90.977,704.2"/></g><g class="edgeLabels"><g transform="translate(158.7265625, 150.5)" class="edgeLabel"><g transform="translate(-17.859375, -9.5)" class="label"><foreignObject height="19" width="35.71875"><div style="display: inline-block; white-space: nowrap;" xmlns="http://www.w3.org/1999/xhtml"><span class="edgeLabel">owns</span></div></foreignObject></g></g><g transform="translate(90.9765625, 150.5)" class="edgeLabel"><g transform="translate(-29.890625, -9.5)" class="label"><foreignObject height="19" width="59.78125"><div style="display: inline-block; white-space: nowrap;" xmlns="http://www.w3.org/1999/xhtml"><span class="edgeLabel">contains</span></div></foreignObject></g></g><g transform="translate(90.9765625, 398.5)" class="edgeLabel"><g transform="translate(-26.4140625, -9.5)" class="label"><foreignObject height="19" width="52.828125"><div style="display: inline-block; white-space: nowrap;" xmlns="http://www.w3.org/1999/xhtml"><span class="edgeLabel">creates</span></div></foreignObject></g></g><g transform="translate(571.515625, 398.5)" class="edgeLabel"><g transform="translate(-11.8125, -9.5)" class="label"><foreignObject height="19" width="23.625"><div style="display: inline-block; white-space: nowrap;" xmlns="http://www.w3.org/1999/xhtml"><span class="edgeLabel">has</span></div></foreignObject></g></g><g transform="translate(340.6171875, 398.5)" class="edgeLabel"><g transform="translate(-25.1640625, -9.5)" class="label"><foreignObject height="19" width="50.328125"><div style="display: inline-block; white-space: nowrap;" xmlns="http://www.w3.org/1999/xhtml"><span class="edgeLabel">queues</span></div></foreignObject></g></g><g transform="translate(510.8203125, 398.5)" class="edgeLabel"><g transform="translate(-26.03125, -9.5)" class="label"><foreignObject height="19" width="52.0625"><div style="display: inline-block; white-space: nowrap;" xmlns="http://www.w3.org/1999/xhtml"><span class="edgeLabel">defines</span></div></foreignObject></g></g><g transform="translate(765.875, 646.5)" class="edgeLabel"><g transform="translate(-35.203125, -9.5)" class="label"><foreignObject height="19" width="70.40625"><div style="display: inline-block; white-space: nowrap;" xmlns="http://www.w3.org/1999/xhtml"><span class="edgeLabel">generates</span></div></foreignObject></g></g><g transform="translate(90.9765625, 646.5)" class="edgeLabel"><g transform="translate(-26.53125, -9.5)" class="label"><foreignObject height="19" width="53.0625"><div style="display: inline-block; white-space: nowrap;" xmlns="http://www.w3.org/1999/xhtml"><span class="edgeLabel">records</span></div></foreignObject></g></g></g><g class="nodes"><g transform="translate(90.9765625, 522.5)" data-id="AUDITLOG" data-node="true" id="flowchart-AUDITLOG-7" class="node default default flowchart-label"><rect height="110" width="101.21875" y="-55" x="-50.609375" ry="0" rx="0" style="fill:#fce4ec;stroke:#c2185b;stroke-width:2px;" class="basic label-container"/><g transform="translate(-43.109375, -47.5)" style="" class="label"><rect/><foreignObject height="95" width="86.21875"><div style="display: inline-block; white-space: nowrap;" xmlns="http://www.w3.org/1999/xhtml"><span class="nodeLabel">AUDITLOG<br />log_id (PK)<br />user_id (FK)<br />action<br />timestamp</span></div></foreignObject></g></g><g transform="translate(90.9765625, 755)" data-id="AUDITEVENT" data-node="true" id="flowchart-AUDITEVENT-8" class="node default default flowchart-label"><rect height="91" width="111.953125" y="-45.5" x="-55.9765625" ry="0" rx="0" style="fill:#fce4ec;stroke:#c2185b;stroke-width:2px;" class="basic label-container"/><g transform="translate(-48.4765625, -38)" style="" class="label"><rect/><foreignObject height="76" width="96.953125"><div style="display: inline-block; white-space: nowrap;" xmlns="http://www.w3.org/1999/xhtml"><span class="nodeLabel">AUDITEVENT<br />event_id (PK)<br />log_id (FK)<br />event_details</span></div></foreignObject></g></g><g transform="translate(765.875, 522.5)" data-id="INCIDENT" data-node="true" id="flowchart-INCIDENT-5" class="node default default flowchart-label"><rect height="110" width="130.09375" y="-55" x="-65.046875" ry="0" rx="0" style="fill:#fff3e0;stroke:#f57c00;stroke-width:2px;" class="basic label-container"/><g transform="translate(-57.546875, -47.5)" style="" class="label"><rect/><foreignObject height="95" width="115.09375"><div style="display: inline-block; white-space: nowrap;" xmlns="http://www.w3.org/1999/xhtml"><span class="nodeLabel">INCIDENT<br />incident_id (PK)<br />cluster_id (FK)<br />title<br />status</span></div></foreignObject></g></g><g transform="translate(765.875, 755)" data-id="TIMELINE" data-node="true" id="flowchart-TIMELINE-6" class="node default default flowchart-label"><rect height="148" width="209.390625" y="-74" x="-104.6953125" ry="0" rx="0" style="fill:#fff3e0;stroke:#f57c00;stroke-width:2px;" class="basic label-container"/><g transform="translate(-97.1953125, -66.5)" style="" class="label"><rect/><foreignObject height="133" width="194.390625"><div style="display: inline-block; white-space: nowrap;" xmlns="http://www.w3.org/1999/xhtml"><span class="nodeLabel">INCIDENT_TIMELINE_EVENT<br />event_id (PK)<br />incident_id (FK)<br />event_type<br />content<br />pending_supervisor<br />timestamp</span></div></foreignObject></g></g><g transform="translate(510.8203125, 274.5)" data-id="CLUSTER" data-node="true" id="flowchart-CLUSTER-2" class="node default default flowchart-label"><rect height="129" width="120.71875" y="-64.5" x="-60.359375" ry="0" rx="0" style="fill:#f3e5f5;stroke:#7b1fa2;stroke-width:2px;" class="basic label-container"/><g transform="translate(-52.859375, -57)" style="" class="label"><rect/><foreignObject height="114" width="105.71875"><div style="display: inline-block; white-space: nowrap;" xmlns="http://www.w3.org/1999/xhtml"><span class="nodeLabel">CLUSTER<br />cluster_id (PK)<br />name<br />api_endpoint<br />token<br />org_id (FK)</span></div></foreignObject></g></g><g transform="translate(340.6171875, 522.5)" data-id="JOB" data-node="true" id="flowchart-JOB-3" class="node default default flowchart-label"><rect height="129" width="120.203125" y="-64.5" x="-60.1015625" ry="0" rx="0" style="fill:#f3e5f5;stroke:#7b1fa2;stroke-width:2px;" class="basic label-container"/><g transform="translate(-52.6015625, -57)" style="" class="label"><rect/><foreignObject height="114" width="105.203125"><div style="display: inline-block; white-space: nowrap;" xmlns="http://www.w3.org/1999/xhtml"><span class="nodeLabel">JOB<br />job_id (PK)<br />cluster_id (FK)<br />job_type<br />status<br />created_at</span></div></foreignObject></g></g><g transform="translate(510.8203125, 522.5)" data-id="SLO" data-node="true" id="flowchart-SLO-4" class="node default default flowchart-label"><rect height="110" width="120.203125" y="-55" x="-60.1015625" ry="0" rx="0" style="fill:#f3e5f5;stroke:#7b1fa2;stroke-width:2px;" class="basic label-container"/><g transform="translate(-52.6015625, -47.5)" style="" class="label"><rect/><foreignObject height="95" width="105.203125"><div style="display: inline-block; white-space: nowrap;" xmlns="http://www.w3.org/1999/xhtml"><span class="nodeLabel">SLO<br />slo_id (PK)<br />cluster_id (FK)<br />service<br />error_budget</span></div></foreignObject></g></g><g transform="translate(119.90625, 70.5)" data-id="ORGANIZATION" data-node="true" id="flowchart-ORGANIZATION-0" class="node default default flowchart-label"><rect height="91" width="121.4375" y="-45.5" x="-60.71875" ry="0" rx="0" style="fill:#e3f2fd;stroke:#1976d2;stroke-width:2px;" class="basic label-container"/><g transform="translate(-53.21875, -38)" style="" class="label"><rect/><foreignObject height="76" width="106.4375"><div style="display: inline-block; white-space: nowrap;" xmlns="http://www.w3.org/1999/xhtml"><span class="nodeLabel">ORGANIZATION<br />org_id (PK)<br />name<br />created_at</span></div></foreignObject></g></g><g transform="translate(90.9765625, 274.5)" data-id="USER" data-node="true" id="flowchart-USER-1" class="node default default flowchart-label"><rect height="110" width="101.734375" y="-55" x="-50.8671875" ry="0" rx="0" style="fill:#e3f2fd;stroke:#1976d2;stroke-width:2px;" class="basic label-container"/><g transform="translate(-43.3671875, -47.5)" style="" class="label"><rect/><foreignObject height="95" width="86.734375"><div style="display: inline-block; white-space: nowrap;" xmlns="http://www.w3.org/1999/xhtml"><span class="nodeLabel">USER<br />user_id (PK)<br />email<br />role<br />org_id (FK)</span></div></foreignObject></g></g></g></g></g></svg>