<svg aria-roledescription="flowchart-v2" role="graphics-document document" viewBox="-8 -8 754.13671875 798" style="max-width: 754.137px; background-color: white;" xmlns:xlink="http://www.w3.org/1999/xlink" xmlns="http://www.w3.org/2000/svg" width="100%" id="my-svg"><style>#my-svg{font-family:"trebuchet ms",verdana,arial,sans-serif;font-size:16px;fill:#ccc;}#my-svg .error-icon{fill:#a44141;}#my-svg .error-text{fill:#ddd;stroke:#ddd;}#my-svg .edge-thickness-normal{stroke-width:2px;}#my-svg .edge-thickness-thick{stroke-width:3.5px;}#my-svg .edge-pattern-solid{stroke-dasharray:0;}#my-svg .edge-pattern-dashed{stroke-dasharray:3;}#my-svg .edge-pattern-dotted{stroke-dasharray:2;}#my-svg .marker{fill:lightgrey;stroke:lightgrey;}#my-svg .marker.cross{stroke:lightgrey;}#my-svg svg{font-family:"trebuchet ms",verdana,arial,sans-serif;font-size:16px;}#my-svg .label{font-family:"trebuchet ms",verdana,arial,sans-serif;color:#ccc;}#my-svg .cluster-label text{fill:#F9FFFE;}#my-svg .cluster-label span,#my-svg p{color:#F9FFFE;}#my-svg .label text,#my-svg span,#my-svg p{fill:#ccc;color:#ccc;}#my-svg .node rect,#my-svg .node circle,#my-svg .node ellipse,#my-svg .node polygon,#my-svg .node path{fill:#1f2020;stroke:#81B1DB;stroke-width:1px;}#my-svg .flowchart-label text{text-anchor:middle;}#my-svg .node .katex path{fill:#000;stroke:#000;stroke-width:1px;}#my-svg .node .label{text-align:center;}#my-svg .node.clickable{cursor:pointer;}#my-svg .arrowheadPath{fill:lightgrey;}#my-svg .edgePath .path{stroke:lightgrey;stroke-width:2.0px;}#my-svg .flowchart-link{stroke:lightgrey;fill:none;}#my-svg .edgeLabel{background-color:hsl(0, 0%, 34.4117647059%);text-align:center;}#my-svg .edgeLabel rect{opacity:0.5;background-color:hsl(0, 0%, 34.4117647059%);fill:hsl(0, 0%, 34.4117647059%);}#my-svg .labelBkg{background-color:rgba(87.75, 87.75, 87.75, 0.5);}#my-svg .cluster rect{fill:hsl(180, 1.5873015873%, 28.3529411765%);stroke:rgba(255, 255, 255, 0.25);stroke-width:1px;}#my-svg .cluster text{fill:#F9FFFE;}#my-svg .cluster span,#my-svg p{color:#F9FFFE;}#my-svg div.mermaidTooltip{position:absolute;text-align:center;max-width:200px;padding:2px;font-family:"trebuchet ms",verdana,arial,sans-serif;font-size:12px;background:hsl(20, 1.5873015873%, 12.3529411765%);border:1px solid rgba(255, 255, 255, 0.25);border-radius:2px;pointer-events:none;z-index:100;}#my-svg .flowchartTitleText{text-anchor:middle;font-size:18px;fill:#ccc;}#my-svg :root{--mermaid-font-family:"trebuchet ms",verdana,arial,sans-serif;}</style><g><marker orient="auto" markerHeight="12" markerWidth="12" markerUnits="userSpaceOnUse" refY="5" refX="6" viewBox="0 0 10 10" class="marker flowchart" id="my-svg_flowchart-pointEnd"><path style="stroke-width: 1; stroke-dasharray: 1, 0;" class="arrowMarkerPath" d="M 0 0 L 10 5 L 0 10 z"/></marker><marker orient="auto" markerHeight="12" markerWidth="12" markerUnits="userSpaceOnUse" refY="5" refX="4.5" viewBox="0 0 10 10" class="marker flowchart" id="my-svg_flowchart-pointStart"><path style="stroke-width: 1; stroke-dasharray: 1, 0;" class="arrowMarkerPath" d="M 0 5 L 10 10 L 10 0 z"/></marker><marker orient="auto" markerHeight="11" markerWidth="11" markerUnits="userSpaceOnUse" refY="5" refX="11" viewBox="0 0 10 10" class="marker flowchart" id="my-svg_flowchart-circleEnd"><circle style="stroke-width: 1; stroke-dasharray: 1, 0;" class="arrowMarkerPath" r="5" cy="5" cx="5"/></marker><marker orient="auto" markerHeight="11" markerWidth="11" markerUnits="userSpaceOnUse" refY="5" refX="-1" viewBox="0 0 10 10" class="marker flowchart" id="my-svg_flowchart-circleStart"><circle style="stroke-width: 1; stroke-dasharray: 1, 0;" class="arrowMarkerPath" r="5" cy="5" cx="5"/></marker><marker orient="auto" markerHeight="11" markerWidth="11" markerUnits="userSpaceOnUse" refY="5.2" refX="12" viewBox="0 0 11 11" class="marker cross flowchart" id="my-svg_flowchart-crossEnd"><path style="stroke-width: 2; stroke-dasharray: 1, 0;" class="arrowMarkerPath" d="M 1,1 l 9,9 M 10,1 l -9,9"/></marker><marker orient="auto" markerHeight="11" markerWidth="11" markerUnits="userSpaceOnUse" refY="5.2" refX="-1" viewBox="0 0 11 11" class="marker cross flowchart" id="my-svg_flowchart-crossStart"><path style="stroke-width: 2; stroke-dasharray: 1, 0;" class="arrowMarkerPath" d="M 1,1 l 9,9 M 10,1 l -9,9"/></marker><g class="root"><g class="clusters"><g id="Middleware" class="cluster default flowchart-label"><rect height="679" width="268.484375" y="0" x="0" ry="0" rx="0" style="fill:#fff3e0;"/><g transform="translate(80.7421875, 0)" class="cluster-label"><foreignObject height="19" width="107"><div style="display: inline-block; white-space: nowrap;" xmlns="http://www.w3.org/1999/xhtml"><span class="nodeLabel">Routing &amp; Auth</span></div></foreignObject></g></g><g id="Dashboard" class="cluster default flowchart-label"><rect height="366" width="449.65234375" y="166" x="288.484375" ry="0" rx="0" style="fill:#e3f2fd;"/><g transform="translate(472.326171875, 166)" class="cluster-label"><foreignObject height="19" width="81.96875"><div style="display: inline-block; white-space: nowrap;" xmlns="http://www.w3.org/1999/xhtml"><span class="nodeLabel">dashboard/</span></div></foreignObject></g></g></g><g class="edgePaths"><path marker-end="url(#my-svg_flowchart-pointEnd)" style="fill:none;" class="edge-thickness-normal edge-pattern-solid flowchart-link LS-Browser LE-Auth" id="L-Browser-Auth-0" d="M667.98,87.5L667.98,94.833C667.98,102.167,667.98,116.833,667.98,129.917C667.98,143,667.98,154.5,667.98,163.533C667.98,172.567,667.98,179.133,667.98,182.417L667.98,185.7"/><path marker-end="url(#my-svg_flowchart-pointEnd)" style="fill:none;" class="edge-thickness-normal edge-pattern-solid flowchart-link LS-Auth LE-MW" id="L-Auth-MW-0" d="M632.824,222.154L564.924,212.795C497.023,203.436,361.223,184.718,293.322,169.609C225.422,154.5,225.422,143,218.684,132.04C211.946,121.081,198.471,110.661,191.733,105.452L184.995,100.242"/><path marker-end="url(#my-svg_flowchart-pointEnd)" style="fill:none;" class="edge-thickness-normal edge-pattern-solid flowchart-link LS-MW LE-DashL" id="L-MW-DashL-0" d="M97.73,97L91.898,102.75C86.066,108.5,74.402,120,68.57,131.5C62.738,143,62.738,154.5,120.518,168.692C178.297,182.883,293.857,199.766,351.636,208.208L409.416,216.649"/><path marker-end="url(#my-svg_flowchart-pointEnd)" style="fill:none;" class="edge-thickness-normal edge-pattern-solid flowchart-link LS-MW LE-Auth" id="L-MW-Auth-0" d="M144.289,97L145.894,102.75C147.499,108.5,150.708,120,152.313,131.5C153.918,143,153.918,154.5,232.858,169.617C311.799,184.735,469.68,203.469,548.621,212.836L627.561,222.204"/><path marker-end="url(#my-svg_flowchart-pointEnd)" style="fill:none;" class="edge-thickness-normal edge-pattern-solid flowchart-link LS-DashL LE-DashR" id="L-DashL-DashR-0" d="M423.714,263L417.169,267.167C410.625,271.333,397.535,279.667,390.99,288.7C384.445,297.733,384.445,307.467,384.445,312.333L384.445,317.2"/><path marker-end="url(#my-svg_flowchart-pointEnd)" style="fill:none;" class="edge-thickness-normal edge-pattern-solid flowchart-link LS-DashL LE-Comp" id="L-DashL-Comp-0" d="M533.443,263L539.599,267.167C545.754,271.333,558.064,279.667,564.22,287.117C570.375,294.567,570.375,301.133,570.375,304.417L570.375,307.7"/><path marker-end="url(#my-svg_flowchart-pointEnd)" style="fill:none;" class="edge-thickness-normal edge-pattern-solid flowchart-link LS-Comp LE-Lib" id="L-Comp-Lib-0" d="M570.375,385L570.375,389.167C570.375,393.333,570.375,401.667,570.375,409.117C570.375,416.567,570.375,423.133,570.375,426.417L570.375,429.7"/><path marker-end="url(#my-svg_flowchart-pointEnd)" style="fill:none;" class="edge-thickness-normal edge-pattern-solid flowchart-link LS-Lib LE-Config" id="L-Lib-Config-0" d="M570.375,507L570.375,511.167C570.375,515.333,570.375,523.667,497.686,532C424.997,540.333,279.62,548.667,206.931,556.117C134.242,563.567,134.242,570.133,134.242,573.417L134.242,576.7"/><path marker-end="url(#my-svg_flowchart-pointEnd)" style="fill:none;" class="edge-thickness-normal edge-pattern-solid flowchart-link LS-Config LE-Backend" id="L-Config-Backend-0" d="M134.242,654L134.242,658.167C134.242,662.333,134.242,670.667,134.242,679C134.242,687.333,134.242,695.667,134.242,703.117C134.242,710.567,134.242,717.133,134.242,720.417L134.242,723.7"/></g><g class="edgeLabels"><g class="edgeLabel"><g transform="translate(0, 0)" class="label"><foreignObject height="0" width="0"><div style="display: inline-block; white-space: nowrap;" xmlns="http://www.w3.org/1999/xhtml"><span class="edgeLabel"></span></div></foreignObject></g></g><g class="edgeLabel"><g transform="translate(0, 0)" class="label"><foreignObject height="0" width="0"><div style="display: inline-block; white-space: nowrap;" xmlns="http://www.w3.org/1999/xhtml"><span class="edgeLabel"></span></div></foreignObject></g></g><g transform="translate(62.73828125, 131.5)" class="edgeLabel"><g transform="translate(-39.8671875, -9.5)" class="label"><foreignObject height="19" width="79.734375"><div style="display: inline-block; white-space: nowrap;" xmlns="http://www.w3.org/1999/xhtml"><span class="edgeLabel">valid token</span></div></foreignObject></g></g><g transform="translate(153.91796875, 131.5)" class="edgeLabel"><g transform="translate(-31.3125, -9.5)" class="label"><foreignObject height="19" width="62.625"><div style="display: inline-block; white-space: nowrap;" xmlns="http://www.w3.org/1999/xhtml"><span class="edgeLabel">no token</span></div></foreignObject></g></g><g class="edgeLabel"><g transform="translate(0, 0)" class="label"><foreignObject height="0" width="0"><div style="display: inline-block; white-space: nowrap;" xmlns="http://www.w3.org/1999/xhtml"><span class="edgeLabel"></span></div></foreignObject></g></g><g class="edgeLabel"><g transform="translate(0, 0)" class="label"><foreignObject height="0" width="0"><div style="display: inline-block; white-space: nowrap;" xmlns="http://www.w3.org/1999/xhtml"><span class="edgeLabel"></span></div></foreignObject></g></g><g class="edgeLabel"><g transform="translate(0, 0)" class="label"><foreignObject height="0" width="0"><div style="display: inline-block; white-space: nowrap;" xmlns="http://www.w3.org/1999/xhtml"><span class="edgeLabel"></span></div></foreignObject></g></g><g class="edgeLabel"><g transform="translate(0, 0)" class="label"><foreignObject height="0" width="0"><div style="display: inline-block; white-space: nowrap;" xmlns="http://www.w3.org/1999/xhtml"><span class="edgeLabel"></span></div></foreignObject></g></g><g class="edgeLabel"><g transform="translate(0, 0)" class="label"><foreignObject height="0" width="0"><div style="display: inline-block; white-space: nowrap;" xmlns="http://www.w3.org/1999/xhtml"><span class="edgeLabel"></span></div></foreignObject></g></g></g><g class="nodes"><g transform="translate(134.2421875, 61)" data-id="MW" data-node="true" id="flowchart-MW-6" class="node default default flowchart-label"><rect height="72" width="153.390625" y="-36" x="-76.6953125" ry="0" rx="0" style="" class="basic label-container"/><g transform="translate(-69.1953125, -28.5)" style="" class="label"><rect/><foreignObject height="57" width="138.390625"><div style="display: inline-block; white-space: nowrap;" xmlns="http://www.w3.org/1999/xhtml"><span class="nodeLabel">middleware.ts<br />check token cookie<br />redirect anon users</span></div></foreignObject></g></g><g transform="translate(134.2421875, 618)" data-id="Config" data-node="true" id="flowchart-Config-7" class="node default default flowchart-label"><rect height="72" width="198.484375" y="-36" x="-99.2421875" ry="0" rx="0" style="" class="basic label-container"/><g transform="translate(-91.7421875, -28.5)" style="" class="label"><rect/><foreignObject height="57" width="183.484375"><div style="display: inline-block; white-space: nowrap;" xmlns="http://www.w3.org/1999/xhtml"><span class="nodeLabel">next.config.ts<br />rewrite /api → backend<br />rewrite /auth → backend</span></div></foreignObject></g></g><g transform="translate(397.30078125, 471)" data-id="D1" data-node="true" id="flowchart-D1-0" class="node default default flowchart-label"><rect height="34" width="67.25" y="-17" x="-33.625" ry="0" rx="0" style="" class="basic label-container"/><g transform="translate(-26.125, -9.5)" style="" class="label"><rect/><foreignObject height="19" width="52.25"><div style="display: inline-block; white-space: nowrap;" xmlns="http://www.w3.org/1999/xhtml"><span class="nodeLabel">app/...</span></div></foreignObject></g></g><g transform="translate(667.98046875, 227)" data-id="Auth" data-node="true" id="flowchart-Auth-1" class="node default default flowchart-label"><rect height="72" width="70.3125" y="-36" x="-35.15625" ry="0" rx="0" style="" class="basic label-container"/><g transform="translate(-27.65625, -28.5)" style="" class="label"><rect/><foreignObject height="57" width="55.3125"><div style="display: inline-block; white-space: nowrap;" xmlns="http://www.w3.org/1999/xhtml"><span class="nodeLabel">(auth)/<br />login<br />register</span></div></foreignObject></g></g><g transform="translate(480.26171875, 227)" data-id="DashL" data-node="true" id="flowchart-DashL-2" class="node default default flowchart-label"><rect height="72" width="131.203125" y="-36" x="-65.6015625" ry="0" rx="0" style="" class="basic label-container"/><g transform="translate(-58.1015625, -28.5)" style="" class="label"><rect/><foreignObject height="57" width="116.203125"><div style="display: inline-block; white-space: nowrap;" xmlns="http://www.w3.org/1999/xhtml"><span class="nodeLabel">(dashboard)/<br />layout + chrome<br />account menu</span></div></foreignObject></g></g><g transform="translate(384.4453125, 349)" data-id="DashR" data-node="true" id="flowchart-DashR-3" class="node default default flowchart-label"><rect height="53" width="112.640625" y="-26.5" x="-56.3203125" ry="0" rx="0" style="" class="basic label-container"/><g transform="translate(-48.8203125, -19)" style="" class="label"><rect/><foreignObject height="38" width="97.640625"><div style="display: inline-block; white-space: nowrap;" xmlns="http://www.w3.org/1999/xhtml"><span class="nodeLabel">clusters/{id}/<br />incidents</span></div></foreignObject></g></g><g transform="translate(570.375, 349)" data-id="Comp" data-node="true" id="flowchart-Comp-4" class="node default default flowchart-label"><rect height="72" width="159.21875" y="-36" x="-79.609375" ry="0" rx="0" style="" class="basic label-container"/><g transform="translate(-72.109375, -28.5)" style="" class="label"><rect/><foreignObject height="57" width="144.21875"><div style="display: inline-block; white-space: nowrap;" xmlns="http://www.w3.org/1999/xhtml"><span class="nodeLabel">components/<br />shadcn primitives<br />feature components</span></div></foreignObject></g></g><g transform="translate(570.375, 471)" data-id="Lib" data-node="true" id="flowchart-Lib-5" class="node default default flowchart-label"><rect height="72" width="107.796875" y="-36" x="-53.8984375" ry="0" rx="0" style="" class="basic label-container"/><g transform="translate(-46.3984375, -28.5)" style="" class="label"><rect/><foreignObject height="57" width="92.796875"><div style="display: inline-block; white-space: nowrap;" xmlns="http://www.w3.org/1999/xhtml"><span class="nodeLabel">lib/<br />auth-context<br />api helper</span></div></foreignObject></g></g><g transform="translate(667.98046875, 61)" data-id="Browser" data-node="true" id="flowchart-Browser-8" class="node default default flowchart-label"><rect height="53" width="118.9375" y="-26.5" x="-59.46875" ry="0" rx="0" style="fill:#f3e5f5;" class="basic label-container"/><g transform="translate(-51.96875, -19)" style="" class="label"><rect/><foreignObject height="38" width="103.9375"><div style="display: inline-block; white-space: nowrap;" xmlns="http://www.w3.org/1999/xhtml"><span class="nodeLabel">Browser<br />localhost:3000</span></div></foreignObject></g></g><g transform="translate(134.2421875, 755.5)" data-id="Backend" data-node="true" id="flowchart-Backend-9" class="node default default flowchart-label"><rect height="53" width="118.9375" y="-26.5" x="-59.46875" ry="0" rx="0" style="fill:#fce4ec;" class="basic label-container"/><g transform="translate(-51.96875, -19)" style="" class="label"><rect/><foreignObject height="38" width="103.9375"><div style="display: inline-block; white-space: nowrap;" xmlns="http://www.w3.org/1999/xhtml"><span class="nodeLabel">Backend API<br />localhost:8080</span></div></foreignObject></g></g></g></g></g></svg>