<svg aria-roledescription="flowchart-v2" role="graphics-document document" viewBox="-8 -8 897.46875 805" style="max-width: 897.469px; background-color: white;" xmlns:xlink="http://www.w3.org/1999/xlink" xmlns="http://www.w3.org/2000/svg" width="100%" id="my-svg"><style>#my-svg{font-family:"trebuchet ms",verdana,arial,sans-serif;font-size:16px;fill:#ccc;}#my-svg .error-icon{fill:#a44141;}#my-svg .error-text{fill:#ddd;stroke:#ddd;}#my-svg .edge-thickness-normal{stroke-width:2px;}#my-svg .edge-thickness-thick{stroke-width:3.5px;}#my-svg .edge-pattern-solid{stroke-dasharray:0;}#my-svg .edge-pattern-dashed{stroke-dasharray:3;}#my-svg .edge-pattern-dotted{stroke-dasharray:2;}#my-svg .marker{fill:lightgrey;stroke:lightgrey;}#my-svg .marker.cross{stroke:lightgrey;}#my-svg svg{font-family:"trebuchet ms",verdana,arial,sans-serif;font-size:16px;}#my-svg .label{font-family:"trebuchet ms",verdana,arial,sans-serif;color:#ccc;}#my-svg .cluster-label text{fill:#F9FFFE;}#my-svg .cluster-label span,#my-svg p{color:#F9FFFE;}#my-svg .label text,#my-svg span,#my-svg p{fill:#ccc;color:#ccc;}#my-svg .node rect,#my-svg .node circle,#my-svg .node ellipse,#my-svg .node polygon,#my-svg .node path{fill:#1f2020;stroke:#81B1DB;stroke-width:1px;}#my-svg .flowchart-label text{text-anchor:middle;}#my-svg .node .katex path{fill:#000;stroke:#000;stroke-width:1px;}#my-svg .node .label{text-align:center;}#my-svg .node.clickable{cursor:pointer;}#my-svg .arrowheadPath{fill:lightgrey;}#my-svg .edgePath .path{stroke:lightgrey;stroke-width:2.0px;}#my-svg .flowchart-link{stroke:lightgrey;fill:none;}#my-svg .edgeLabel{background-color:hsl(0, 0%, 34.4117647059%);text-align:center;}#my-svg .edgeLabel rect{opacity:0.5;background-color:hsl(0, 0%, 34.4117647059%);fill:hsl(0, 0%, 34.4117647059%);}#my-svg .labelBkg{background-color:rgba(87.75, 87.75, 87.75, 0.5);}#my-svg .cluster rect{fill:hsl(180, 1.5873015873%, 28.3529411765%);stroke:rgba(255, 255, 255, 0.25);stroke-width:1px;}#my-svg .cluster text{fill:#F9FFFE;}#my-svg .cluster span,#my-svg p{color:#F9FFFE;}#my-svg div.mermaidTooltip{position:absolute;text-align:center;max-width:200px;padding:2px;font-family:"trebuchet ms",verdana,arial,sans-serif;font-size:12px;background:hsl(20, 1.5873015873%, 12.3529411765%);border:1px solid rgba(255, 255, 255, 0.25);border-radius:2px;pointer-events:none;z-index:100;}#my-svg .flowchartTitleText{text-anchor:middle;font-size:18px;fill:#ccc;}#my-svg :root{--mermaid-font-family:"trebuchet ms",verdana,arial,sans-serif;}</style><g><marker orient="auto" markerHeight="12" markerWidth="12" markerUnits="userSpaceOnUse" refY="5" refX="6" viewBox="0 0 10 10" class="marker flowchart" id="my-svg_flowchart-pointEnd"><path style="stroke-width: 1; stroke-dasharray: 1, 0;" class="arrowMarkerPath" d="M 0 0 L 10 5 L 0 10 z"/></marker><marker orient="auto" markerHeight="12" markerWidth="12" markerUnits="userSpaceOnUse" refY="5" refX="4.5" viewBox="0 0 10 10" class="marker flowchart" id="my-svg_flowchart-pointStart"><path style="stroke-width: 1; stroke-dasharray: 1, 0;" class="arrowMarkerPath" d="M 0 5 L 10 10 L 10 0 z"/></marker><marker orient="auto" markerHeight="11" markerWidth="11" markerUnits="userSpaceOnUse" refY="5" refX="11" viewBox="0 0 10 10" class="marker flowchart" id="my-svg_flowchart-circleEnd"><circle style="stroke-width: 1; stroke-dasharray: 1, 0;" class="arrowMarkerPath" r="5" cy="5" cx="5"/></marker><marker orient="auto" markerHeight="11" markerWidth="11" markerUnits="userSpaceOnUse" refY="5" refX="-1" viewBox="0 0 10 10" class="marker flowchart" id="my-svg_flowchart-circleStart"><circle style="stroke-width: 1; stroke-dasharray: 1, 0;" class="arrowMarkerPath" r="5" cy="5" cx="5"/></marker><marker orient="auto" markerHeight="11" markerWidth="11" markerUnits="userSpaceOnUse" refY="5.2" refX="12" viewBox="0 0 11 11" class="marker cross flowchart" id="my-svg_flowchart-crossEnd"><path style="stroke-width: 2; stroke-dasharray: 1, 0;" class="arrowMarkerPath" d="M 1,1 l 9,9 M 10,1 l -9,9"/></marker><marker orient="auto" markerHeight="11" markerWidth="11" markerUnits="userSpaceOnUse" refY="5.2" refX="-1" viewBox="0 0 11 11" class="marker cross flowchart" id="my-svg_flowchart-crossStart"><path style="stroke-width: 2; stroke-dasharray: 1, 0;" class="arrowMarkerPath" d="M 1,1 l 9,9 M 10,1 l -9,9"/></marker><g class="root"><g class="clusters"><g id="MCPServers" class="cluster default flowchart-label"><rect height="141" width="881.46875" y="0" x="0" ry="0" rx="0" style="fill:#e1f5ff;"/><g transform="translate(380.734375, 0)" class="cluster-label"><foreignObject height="19" width="120"><div style="display: inline-block; white-space: nowrap;" xmlns="http://www.w3.org/1999/xhtml"><span class="nodeLabel">MCP Tool Servers</span></div></foreignObject></g></g></g><g class="edgePaths"><path marker-end="url(#my-svg_flowchart-pointEnd)" style="fill:none;" class="edge-thickness-normal edge-pattern-solid flowchart-link LS-Agent LE-MP" id="L-Agent-MP-0" d="M521.535,686L521.535,690.167C521.535,694.333,521.535,702.667,495.434,712.28C469.332,721.894,417.129,732.787,391.028,738.234L364.927,743.681"/><path marker-end="url(#my-svg_flowchart-pointEnd)" style="fill:none;" class="edge-thickness-normal edge-pattern-solid flowchart-link LS-MP LE-Specialists" id="L-MP-Specialists-0" d="M211.813,736L201.917,731.833C192.022,727.667,172.232,719.333,162.337,706.583C152.441,693.833,152.441,676.667,152.441,659.5C152.441,642.333,152.441,625.167,152.441,608C152.441,590.833,152.441,573.667,152.441,554.917C152.441,536.167,152.441,515.833,152.441,492.333C152.441,468.833,152.441,442.167,152.441,417.083C152.441,392,152.441,368.5,189.457,345.565C226.473,322.63,300.504,300.26,337.52,289.075L374.536,277.89"/><path marker-end="url(#my-svg_flowchart-pointEnd)" style="fill:none;" class="edge-thickness-normal edge-pattern-solid flowchart-link LS-K8S LE-Specialists" id="L-K8S-Specialists-0" d="M133.568,116L136.642,120.167C139.716,124.333,145.864,132.667,148.938,141C152.012,149.333,152.012,157.667,189.099,173.024C226.186,188.381,300.361,210.762,337.448,221.952L374.535,233.142"/><path marker-end="url(#my-svg_flowchart-pointEnd)" style="fill:none;" class="edge-thickness-normal edge-pattern-solid flowchart-link LS-PR LE-Specialists" id="L-PR-Specialists-0" d="M281.844,116L281.844,120.167C281.844,124.333,281.844,132.667,281.844,141C281.844,149.333,281.844,157.667,297.36,170.159C312.876,182.652,343.907,199.304,359.423,207.63L374.939,215.956"/><path marker-end="url(#my-svg_flowchart-pointEnd)" style="fill:none;" class="edge-thickness-normal edge-pattern-solid flowchart-link LS-LK LE-Specialists" id="L-LK-Specialists-0" d="M448.633,116L448.633,120.167C448.633,124.333,448.633,132.667,448.633,141C448.633,149.333,448.633,157.667,448.633,165.117C448.633,172.567,448.633,179.133,448.633,182.417L448.633,185.7"/><path marker-end="url(#my-svg_flowchart-pointEnd)" style="fill:none;" class="edge-thickness-normal edge-pattern-solid flowchart-link LS-GH LE-Specialists" id="L-GH-Specialists-0" d="M604.086,116L604.086,120.167C604.086,124.333,604.086,132.667,604.086,141C604.086,149.333,604.086,157.667,590.447,169.686C576.807,181.705,549.528,197.411,535.889,205.264L522.249,213.116"/><path marker-end="url(#my-svg_flowchart-pointEnd)" style="fill:none;" class="edge-thickness-normal edge-pattern-solid flowchart-link LS-RB LE-Specialists" id="L-RB-Specialists-0" d="M778.031,106.5L778.031,112.25C778.031,118,778.031,129.5,778.031,139.417C778.031,149.333,778.031,157.667,735.488,173.393C692.944,189.119,607.858,212.237,565.314,223.797L522.771,235.356"/><path marker-end="url(#my-svg_flowchart-pointEnd)" style="fill:none;" class="edge-thickness-normal edge-pattern-solid flowchart-link LS-Specialists LE-Supervisor" id="L-Specialists-Supervisor-0" d="M501.171,320L504.565,324.167C507.959,328.333,514.747,336.667,518.141,344.117C521.535,351.567,521.535,358.133,521.535,361.417L521.535,364.7"/><path marker-end="url(#my-svg_flowchart-pointEnd)" style="fill:none;" class="edge-thickness-normal edge-pattern-solid flowchart-link LS-Supervisor LE-State" id="L-Supervisor-State-0" d="M521.535,461L521.535,466.75C521.535,472.5,521.535,484,521.535,494.617C521.535,505.233,521.535,514.967,521.535,519.833L521.535,524.7"/><path marker-end="url(#my-svg_flowchart-pointEnd)" style="fill:none;" class="edge-thickness-normal edge-pattern-solid flowchart-link LS-State LE-Agent" id="L-State-Agent-0" d="M521.535,583L521.535,587.167C521.535,591.333,521.535,599.667,521.535,607.117C521.535,614.567,521.535,621.133,521.535,624.417L521.535,627.7"/><path marker-end="url(#my-svg_flowchart-pointEnd)" style="fill:none;" class="edge-thickness-normal edge-pattern-solid flowchart-link LS-MP LE-MCPServers" id="L-MP-MCPServers-0" d="M189.754,741.122L169.795,736.102C149.836,731.081,109.918,721.041,89.959,707.437C70,693.833,70,676.667,70,659.5C70,642.333,70,625.167,70,608C70,590.833,70,573.667,70,554.917C70,536.167,70,515.833,70,492.333C70,468.833,70,442.167,70,417.083C70,392,70,368.5,70,341.833C70,315.167,70,285.333,70,255.5C70,225.667,70,195.833,70,177.633C70,159.433,70,152.867,70,149.583L70,146.3"/></g><g class="edgeLabels"><g class="edgeLabel"><g transform="translate(0, 0)" class="label"><foreignObject height="0" width="0"><div style="display: inline-block; white-space: nowrap;" xmlns="http://www.w3.org/1999/xhtml"><span class="edgeLabel"></span></div></foreignObject></g></g><g transform="translate(152.44140625, 556.5)" class="edgeLabel"><g transform="translate(-40.859375, -9.5)" class="label"><foreignObject height="19" width="81.71875"><div style="display: inline-block; white-space: nowrap;" xmlns="http://www.w3.org/1999/xhtml"><span class="edgeLabel">Tool results</span></div></foreignObject></g></g><g class="edgeLabel"><g transform="translate(0, 0)" class="label"><foreignObject height="0" width="0"><div style="display: inline-block; white-space: nowrap;" xmlns="http://www.w3.org/1999/xhtml"><span class="edgeLabel"></span></div></foreignObject></g></g><g class="edgeLabel"><g transform="translate(0, 0)" class="label"><foreignObject height="0" width="0"><div style="display: inline-block; white-space: nowrap;" xmlns="http://www.w3.org/1999/xhtml"><span class="edgeLabel"></span></div></foreignObject></g></g><g class="edgeLabel"><g transform="translate(0, 0)" class="label"><foreignObject height="0" width="0"><div style="display: inline-block; white-space: nowrap;" xmlns="http://www.w3.org/1999/xhtml"><span class="edgeLabel"></span></div></foreignObject></g></g><g class="edgeLabel"><g transform="translate(0, 0)" class="label"><foreignObject height="0" width="0"><div style="display: inline-block; white-space: nowrap;" xmlns="http://www.w3.org/1999/xhtml"><span class="edgeLabel"></span></div></foreignObject></g></g><g class="edgeLabel"><g transform="translate(0, 0)" class="label"><foreignObject height="0" width="0"><div style="display: inline-block; white-space: nowrap;" xmlns="http://www.w3.org/1999/xhtml"><span class="edgeLabel"></span></div></foreignObject></g></g><g class="edgeLabel"><g transform="translate(0, 0)" class="label"><foreignObject height="0" width="0"><div style="display: inline-block; white-space: nowrap;" xmlns="http://www.w3.org/1999/xhtml"><span class="edgeLabel"></span></div></foreignObject></g></g><g class="edgeLabel"><g transform="translate(0, 0)" class="label"><foreignObject height="0" width="0"><div style="display: inline-block; white-space: nowrap;" xmlns="http://www.w3.org/1999/xhtml"><span class="edgeLabel"></span></div></foreignObject></g></g><g class="edgeLabel"><g transform="translate(0, 0)" class="label"><foreignObject height="0" width="0"><div style="display: inline-block; white-space: nowrap;" xmlns="http://www.w3.org/1999/xhtml"><span class="edgeLabel"></span></div></foreignObject></g></g><g transform="translate(70, 487.74205)" class="edgeLabel"><g transform="translate(-37.375, -9.5)" class="label"><foreignObject height="19" width="74.75"><div style="display: inline-block; white-space: nowrap;" xmlns="http://www.w3.org/1999/xhtml"><span class="edgeLabel">HTTP calls</span></div></foreignObject></g></g></g><g class="nodes"><g transform="translate(100, 70.5)" data-id="K8S" data-node="true" id="flowchart-K8S-2" class="node default default flowchart-label"><rect height="91" width="130" y="-45.5" x="-65" ry="0" rx="0" style="" class="basic label-container"/><g transform="translate(-57.5, -38)" style="" class="label"><rect/><foreignObject height="76" width="115"><div style="display: inline-block; white-space: nowrap;" xmlns="http://www.w3.org/1999/xhtml"><span class="nodeLabel">Kubernetes MCP<br />cluster state<br />pod details<br />events</span></div></foreignObject></g></g><g transform="translate(281.84375, 70.5)" data-id="PR" data-node="true" id="flowchart-PR-3" class="node default default flowchart-label"><rect height="91" width="133.6875" y="-45.5" x="-66.84375" ry="0" rx="0" style="" class="basic label-container"/><g transform="translate(-59.34375, -38)" style="" class="label"><rect/><foreignObject height="76" width="118.6875"><div style="display: inline-block; white-space: nowrap;" xmlns="http://www.w3.org/1999/xhtml"><span class="nodeLabel">Prometheus MCP<br />golden signals<br />time series<br />alert status</span></div></foreignObject></g></g><g transform="translate(448.6328125, 70.5)" data-id="LK" data-node="true" id="flowchart-LK-4" class="node default default flowchart-label"><rect height="91" width="99.890625" y="-45.5" x="-49.9453125" ry="0" rx="0" style="" class="basic label-container"/><g transform="translate(-42.4453125, -38)" style="" class="label"><rect/><foreignObject height="76" width="84.890625"><div style="display: inline-block; white-space: nowrap;" xmlns="http://www.w3.org/1999/xhtml"><span class="nodeLabel">Loki MCP<br />log search<br />error traces<br />log context</span></div></foreignObject></g></g><g transform="translate(604.0859375, 70.5)" data-id="GH" data-node="true" id="flowchart-GH-5" class="node default default flowchart-label"><rect height="91" width="111.015625" y="-45.5" x="-55.5078125" ry="0" rx="0" style="" class="basic label-container"/><g transform="translate(-48.0078125, -38)" style="" class="label"><rect/><foreignObject height="76" width="96.015625"><div style="display: inline-block; white-space: nowrap;" xmlns="http://www.w3.org/1999/xhtml"><span class="nodeLabel">GitHub MCP<br />commits<br />pull requests<br />code changes</span></div></foreignObject></g></g><g transform="translate(778.03125, 70.5)" data-id="RB" data-node="true" id="flowchart-RB-6" class="node default default flowchart-label"><rect height="72" width="136.875" y="-36" x="-68.4375" ry="0" rx="0" style="" class="basic label-container"/><g transform="translate(-60.9375, -28.5)" style="" class="label"><rect/><foreignObject height="57" width="121.875"><div style="display: inline-block; white-space: nowrap;" xmlns="http://www.w3.org/1999/xhtml"><span class="nodeLabel">Runbooks MCP<br />search playbooks<br />retrieve guides</span></div></foreignObject></g></g><g transform="translate(521.53515625, 659.5)" data-id="Agent" data-node="true" id="flowchart-Agent-0" class="node default default flowchart-label"><rect height="53" width="202.578125" y="-26.5" x="-101.2890625" ry="0" rx="0" style="fill:#f3e5f5;" class="basic label-container"/><g transform="translate(-93.7890625, -19)" style="" class="label"><rect/><foreignObject height="38" width="187.578125"><div style="display: inline-block; white-space: nowrap;" xmlns="http://www.w3.org/1999/xhtml"><span class="nodeLabel">LangGraph Agent Runtime<br />multi_agent_langgraph.py</span></div></foreignObject></g></g><g transform="translate(274.74609375, 762.5)" data-id="MP" data-node="true" id="flowchart-MP-1" class="node default default flowchart-label"><rect height="53" width="169.984375" y="-26.5" x="-84.9921875" ry="0" rx="0" style="fill:#fff3e0;" class="basic label-container"/><g transform="translate(-77.4921875, -19)" style="" class="label"><rect/><foreignObject height="38" width="154.984375"><div style="display: inline-block; white-space: nowrap;" xmlns="http://www.w3.org/1999/xhtml"><span class="nodeLabel">mcp_tool_wrapper.py<br />MCP Tool Bridge</span></div></foreignObject></g></g><g transform="translate(448.6328125, 255.5)" data-id="Specialists" data-node="true" id="flowchart-Specialists-7" class="node default default flowchart-label"><rect height="129" width="138.046875" y="-64.5" x="-69.0234375" ry="0" rx="0" style="fill:#fff3e0;" class="basic label-container"/><g transform="translate(-61.5234375, -57)" style="" class="label"><rect/><foreignObject height="114" width="123.046875"><div style="display: inline-block; white-space: nowrap;" xmlns="http://www.w3.org/1999/xhtml"><span class="nodeLabel">Specialist Agents<br />kubernetes_node<br />metrics_node<br />logs_node<br />github_node<br />runbooks_node</span></div></foreignObject></g></g><g transform="translate(521.53515625, 415.5)" data-id="Supervisor" data-node="true" id="flowchart-Supervisor-8" class="node default default flowchart-label"><rect height="91" width="155.78125" y="-45.5" x="-77.890625" ry="0" rx="0" style="fill:#f3e5f5;" class="basic label-container"/><g transform="translate(-70.390625, -38)" style="" class="label"><rect/><foreignObject height="76" width="140.78125"><div style="display: inline-block; white-space: nowrap;" xmlns="http://www.w3.org/1999/xhtml"><span class="nodeLabel">Supervisor Node<br />Aggregate Evidence<br />Route Decision<br />Plan Next Step</span></div></foreignObject></g></g><g transform="translate(521.53515625, 556.5)" data-id="State" data-node="true" id="flowchart-State-9" class="node default default flowchart-label"><rect height="53" width="139.890625" y="-26.5" x="-69.9453125" ry="0" rx="0" style="fill:#fce4ec;" class="basic label-container"/><g transform="translate(-62.4453125, -19)" style="" class="label"><rect/><foreignObject height="38" width="124.890625"><div style="display: inline-block; white-space: nowrap;" xmlns="http://www.w3.org/1999/xhtml"><span class="nodeLabel">Incident Timeline<br />PostgreSQL</span></div></foreignObject></g></g></g></g></g></svg>