<svg aria-roledescription="flowchart-v2" role="graphics-document document" viewBox="-8 -8 774.828125 1373" style="max-width: 774.828px; background-color: white;" xmlns:xlink="http://www.w3.org/1999/xlink" xmlns="http://www.w3.org/2000/svg" width="100%" id="my-svg"><style>#my-svg{font-family:"trebuchet ms",verdana,arial,sans-serif;font-size:16px;fill:#ccc;}#my-svg .error-icon{fill:#a44141;}#my-svg .error-text{fill:#ddd;stroke:#ddd;}#my-svg .edge-thickness-normal{stroke-width:2px;}#my-svg .edge-thickness-thick{stroke-width:3.5px;}#my-svg .edge-pattern-solid{stroke-dasharray:0;}#my-svg .edge-pattern-dashed{stroke-dasharray:3;}#my-svg .edge-pattern-dotted{stroke-dasharray:2;}#my-svg .marker{fill:lightgrey;stroke:lightgrey;}#my-svg .marker.cross{stroke:lightgrey;}#my-svg svg{font-family:"trebuchet ms",verdana,arial,sans-serif;font-size:16px;}#my-svg .label{font-family:"trebuchet ms",verdana,arial,sans-serif;color:#ccc;}#my-svg .cluster-label text{fill:#F9FFFE;}#my-svg .cluster-label span,#my-svg p{color:#F9FFFE;}#my-svg .label text,#my-svg span,#my-svg p{fill:#ccc;color:#ccc;}#my-svg .node rect,#my-svg .node circle,#my-svg .node ellipse,#my-svg .node polygon,#my-svg .node path{fill:#1f2020;stroke:#81B1DB;stroke-width:1px;}#my-svg .flowchart-label text{text-anchor:middle;}#my-svg .node .katex path{fill:#000;stroke:#000;stroke-width:1px;}#my-svg .node .label{text-align:center;}#my-svg .node.clickable{cursor:pointer;}#my-svg .arrowheadPath{fill:lightgrey;}#my-svg .edgePath .path{stroke:lightgrey;stroke-width:2.0px;}#my-svg .flowchart-link{stroke:lightgrey;fill:none;}#my-svg .edgeLabel{background-color:hsl(0, 0%, 34.4117647059%);text-align:center;}#my-svg .edgeLabel rect{opacity:0.5;background-color:hsl(0, 0%, 34.4117647059%);fill:hsl(0, 0%, 34.4117647059%);}#my-svg .labelBkg{background-color:rgba(87.75, 87.75, 87.75, 0.5);}#my-svg .cluster rect{fill:hsl(180, 1.5873015873%, 28.3529411765%);stroke:rgba(255, 255, 255, 0.25);stroke-width:1px;}#my-svg .cluster text{fill:#F9FFFE;}#my-svg .cluster span,#my-svg p{color:#F9FFFE;}#my-svg div.mermaidTooltip{position:absolute;text-align:center;max-width:200px;padding:2px;font-family:"trebuchet ms",verdana,arial,sans-serif;font-size:12px;background:hsl(20, 1.5873015873%, 12.3529411765%);border:1px solid rgba(255, 255, 255, 0.25);border-radius:2px;pointer-events:none;z-index:100;}#my-svg .flowchartTitleText{text-anchor:middle;font-size:18px;fill:#ccc;}#my-svg :root{--mermaid-font-family:"trebuchet ms",verdana,arial,sans-serif;}</style><g><marker orient="auto" markerHeight="12" markerWidth="12" markerUnits="userSpaceOnUse" refY="5" refX="6" viewBox="0 0 10 10" class="marker flowchart" id="my-svg_flowchart-pointEnd"><path style="stroke-width: 1; stroke-dasharray: 1, 0;" class="arrowMarkerPath" d="M 0 0 L 10 5 L 0 10 z"/></marker><marker orient="auto" markerHeight="12" markerWidth="12" markerUnits="userSpaceOnUse" refY="5" refX="4.5" viewBox="0 0 10 10" class="marker flowchart" id="my-svg_flowchart-pointStart"><path style="stroke-width: 1; stroke-dasharray: 1, 0;" class="arrowMarkerPath" d="M 0 5 L 10 10 L 10 0 z"/></marker><marker orient="auto" markerHeight="11" markerWidth="11" markerUnits="userSpaceOnUse" refY="5" refX="11" viewBox="0 0 10 10" class="marker flowchart" id="my-svg_flowchart-circleEnd"><circle style="stroke-width: 1; stroke-dasharray: 1, 0;" class="arrowMarkerPath" r="5" cy="5" cx="5"/></marker><marker orient="auto" markerHeight="11" markerWidth="11" markerUnits="userSpaceOnUse" refY="5" refX="-1" viewBox="0 0 10 10" class="marker flowchart" id="my-svg_flowchart-circleStart"><circle style="stroke-width: 1; stroke-dasharray: 1, 0;" class="arrowMarkerPath" r="5" cy="5" cx="5"/></marker><marker orient="auto" markerHeight="11" markerWidth="11" markerUnits="userSpaceOnUse" refY="5.2" refX="12" viewBox="0 0 11 11" class="marker cross flowchart" id="my-svg_flowchart-crossEnd"><path style="stroke-width: 2; stroke-dasharray: 1, 0;" class="arrowMarkerPath" d="M 1,1 l 9,9 M 10,1 l -9,9"/></marker><marker orient="auto" markerHeight="11" markerWidth="11" markerUnits="userSpaceOnUse" refY="5.2" refX="-1" viewBox="0 0 11 11" class="marker cross flowchart" id="my-svg_flowchart-crossStart"><path style="stroke-width: 2; stroke-dasharray: 1, 0;" class="arrowMarkerPath" d="M 1,1 l 9,9 M 10,1 l -9,9"/></marker><g class="root"><g class="clusters"/><g class="edgePaths"><path marker-end="url(#my-svg_flowchart-pointEnd)" style="fill:none;" class="edge-thickness-normal edge-pattern-solid flowchart-link LS-Start LE-Env" id="L-Start-Env-0" d="M402.859,34L402.859,38.167C402.859,42.333,402.859,50.667,402.859,58.117C402.859,65.567,402.859,72.133,402.859,75.417L402.859,78.7"/><path marker-end="url(#my-svg_flowchart-pointEnd)" style="fill:none;" class="edge-thickness-normal edge-pattern-solid flowchart-link LS-Env LE-TC" id="L-Env-TC-0" d="M402.859,156L402.859,160.167C402.859,164.333,402.859,172.667,402.859,180.117C402.859,187.567,402.859,194.133,402.859,197.417L402.859,200.7"/><path marker-end="url(#my-svg_flowchart-pointEnd)" style="fill:none;" class="edge-thickness-normal edge-pattern-solid flowchart-link LS-TC LE-TCUP" id="L-TC-TCUP-0" d="M402.859,278L402.859,282.167C402.859,286.333,402.859,294.667,402.859,302.117C402.859,309.567,402.859,316.133,402.859,319.417L402.859,322.7"/><path marker-end="url(#my-svg_flowchart-pointEnd)" style="fill:none;" class="edge-thickness-normal edge-pattern-solid flowchart-link LS-TCUP LE-Platform" id="L-TCUP-Platform-0" d="M402.859,419L402.859,423.167C402.859,427.333,402.859,435.667,402.859,443.117C402.859,450.567,402.859,457.133,402.859,460.417L402.859,463.7"/><path marker-end="url(#my-svg_flowchart-pointEnd)" style="fill:none;" class="edge-thickness-normal edge-pattern-solid flowchart-link LS-Platform LE-PG" id="L-Platform-PG-0" d="M281.484,527.976L248.007,534.314C214.53,540.651,147.576,553.325,114.098,562.946C80.621,572.567,80.621,579.133,80.621,582.417L80.621,585.7"/><path marker-end="url(#my-svg_flowchart-pointEnd)" style="fill:none;" class="edge-thickness-normal edge-pattern-solid flowchart-link LS-Platform LE-Cache" id="L-Platform-Cache-0" d="M299.435,541L287.465,545.167C275.495,549.333,251.554,557.667,239.584,566.7C227.613,575.733,227.613,585.467,227.613,590.333L227.613,595.2"/><path marker-end="url(#my-svg_flowchart-pointEnd)" style="fill:none;" class="edge-thickness-normal edge-pattern-solid flowchart-link LS-Platform LE-Vec" id="L-Platform-Vec-0" d="M390.805,541L389.41,545.167C388.014,549.333,385.224,557.667,383.829,566.7C382.434,575.733,382.434,585.467,382.434,590.333L382.434,595.2"/><path marker-end="url(#my-svg_flowchart-pointEnd)" style="fill:none;" class="edge-thickness-normal edge-pattern-solid flowchart-link LS-Platform LE-Backend" id="L-Platform-Backend-0" d="M483.41,541L492.733,545.167C502.056,549.333,520.702,557.667,530.025,565.117C539.348,572.567,539.348,579.133,539.348,582.417L539.348,585.7"/><path marker-end="url(#my-svg_flowchart-pointEnd)" style="fill:none;" class="edge-thickness-normal edge-pattern-solid flowchart-link LS-Platform LE-Dashboard" id="L-Platform-Dashboard-0" d="M524.234,531.252L551.01,537.044C577.785,542.835,631.336,554.417,658.111,563.492C684.887,572.567,684.887,579.133,684.887,582.417L684.887,585.7"/><path marker-end="url(#my-svg_flowchart-pointEnd)" style="fill:none;" class="edge-thickness-normal edge-pattern-solid flowchart-link LS-PG LE-Ready1" id="L-PG-Ready1-0" d="M80.621,663L80.621,667.167C80.621,671.333,80.621,679.667,122.677,689.353C164.733,699.04,248.844,710.08,290.9,715.599L332.956,721.119"/><path marker-end="url(#my-svg_flowchart-pointEnd)" style="fill:none;" class="edge-thickness-normal edge-pattern-solid flowchart-link LS-Cache LE-Ready1" id="L-Cache-Ready1-0" d="M227.613,653.5L227.613,659.25C227.613,665,227.613,676.5,245.188,686.517C262.762,696.533,297.911,705.066,315.486,709.333L333.061,713.599"/><path marker-end="url(#my-svg_flowchart-pointEnd)" style="fill:none;" class="edge-thickness-normal edge-pattern-solid flowchart-link LS-Vec LE-Ready1" id="L-Vec-Ready1-0" d="M382.434,653.5L382.434,659.25C382.434,665,382.434,676.5,383.887,685.606C385.34,694.712,388.245,701.424,389.698,704.78L391.151,708.136"/><path marker-end="url(#my-svg_flowchart-pointEnd)" style="fill:none;" class="edge-thickness-normal edge-pattern-solid flowchart-link LS-Backend LE-Ready1" id="L-Backend-Ready1-0" d="M539.348,663L539.348,667.167C539.348,671.333,539.348,679.667,526.43,687.744C513.513,695.821,487.678,703.643,474.76,707.554L461.843,711.464"/><path marker-end="url(#my-svg_flowchart-pointEnd)" style="fill:none;" class="edge-thickness-normal edge-pattern-solid flowchart-link LS-Dashboard LE-Ready1" id="L-Dashboard-Ready1-0" d="M684.887,663L684.887,667.167C684.887,671.333,684.887,679.667,648.783,689.168C612.68,698.668,540.473,709.337,504.37,714.671L468.267,720.005"/><path marker-end="url(#my-svg_flowchart-pointEnd)" style="fill:none;" class="edge-thickness-normal edge-pattern-solid flowchart-link LS-Ready1 LE-Edge" id="L-Ready1-Edge-0" d="M400.617,747L400.617,751.167C400.617,755.333,400.617,763.667,400.617,771.117C400.617,778.567,400.617,785.133,400.617,788.417L400.617,791.7"/><path marker-end="url(#my-svg_flowchart-pointEnd)" style="fill:none;" class="edge-thickness-normal edge-pattern-solid flowchart-link LS-Edge LE-K8S" id="L-Edge-K8S-0" d="M295.492,852.107L257.077,859.089C218.661,866.071,141.831,880.036,103.415,890.301C65,900.567,65,907.133,65,910.417L65,913.7"/><path marker-end="url(#my-svg_flowchart-pointEnd)" style="fill:none;" class="edge-thickness-normal edge-pattern-solid flowchart-link LS-Edge LE-PR" id="L-Edge-PR-0" d="M309.866,869L299.362,873.167C288.858,877.333,267.851,885.667,257.347,893.117C246.844,900.567,246.844,907.133,246.844,910.417L246.844,913.7"/><path marker-end="url(#my-svg_flowchart-pointEnd)" style="fill:none;" class="edge-thickness-normal edge-pattern-solid flowchart-link LS-Edge LE-LK" id="L-Edge-LK-0" d="M402.129,869L402.305,873.167C402.48,877.333,402.83,885.667,403.005,893.117C403.18,900.567,403.18,907.133,403.18,910.417L403.18,913.7"/><path marker-end="url(#my-svg_flowchart-pointEnd)" style="fill:none;" class="edge-thickness-normal edge-pattern-solid flowchart-link LS-Edge LE-GH" id="L-Edge-GH-0" d="M484.31,869L493.996,873.167C503.683,877.333,523.056,885.667,532.743,893.117C542.43,900.567,542.43,907.133,542.43,910.417L542.43,913.7"/><path marker-end="url(#my-svg_flowchart-pointEnd)" style="fill:none;" class="edge-thickness-normal edge-pattern-solid flowchart-link LS-Edge LE-RB" id="L-Edge-RB-0" d="M505.742,854.383L538.203,860.986C570.664,867.589,635.586,880.794,668.047,890.681C700.508,900.567,700.508,907.133,700.508,910.417L700.508,913.7"/><path marker-end="url(#my-svg_flowchart-pointEnd)" style="fill:none;" class="edge-thickness-normal edge-pattern-solid flowchart-link LS-K8S LE-EdgeReady" id="L-K8S-EdgeReady-0" d="M65,972L65,976.167C65,980.333,65,988.667,112.377,998.723C159.755,1008.779,254.509,1020.558,301.887,1026.448L349.264,1032.337"/><path marker-end="url(#my-svg_flowchart-pointEnd)" style="fill:none;" class="edge-thickness-normal edge-pattern-solid flowchart-link LS-PR LE-EdgeReady" id="L-PR-EdgeReady-0" d="M246.844,972L246.844,976.167C246.844,980.333,246.844,988.667,263.937,997.435C281.031,1006.203,315.218,1015.407,332.312,1020.008L349.406,1024.61"/><path marker-end="url(#my-svg_flowchart-pointEnd)" style="fill:none;" class="edge-thickness-normal edge-pattern-solid flowchart-link LS-LK LE-EdgeReady" id="L-LK-EdgeReady-0" d="M403.18,972L403.18,976.167C403.18,980.333,403.18,988.667,403.155,996.117C403.13,1003.567,403.08,1010.133,403.054,1013.417L403.029,1016.7"/><path marker-end="url(#my-svg_flowchart-pointEnd)" style="fill:none;" class="edge-thickness-normal edge-pattern-solid flowchart-link LS-GH LE-EdgeReady" id="L-GH-EdgeReady-0" d="M542.43,972L542.43,976.167C542.43,980.333,542.43,988.667,528.07,997.155C513.71,1005.642,484.99,1014.285,470.63,1018.606L456.27,1022.927"/><path marker-end="url(#my-svg_flowchart-pointEnd)" style="fill:none;" class="edge-thickness-normal edge-pattern-solid flowchart-link LS-RB LE-EdgeReady" id="L-RB-EdgeReady-0" d="M700.508,972L700.508,976.167C700.508,980.333,700.508,988.667,659.83,998.573C619.153,1008.48,537.798,1019.959,497.121,1025.699L456.443,1031.439"/><path marker-end="url(#my-svg_flowchart-pointEnd)" style="fill:none;" class="edge-thickness-normal edge-pattern-solid flowchart-link LS-EdgeReady LE-Complete" id="L-EdgeReady-Complete-0" d="M402.859,1056L402.859,1060.167C402.859,1064.333,402.859,1072.667,402.859,1080.117C402.859,1087.567,402.859,1094.133,402.859,1097.417L402.859,1100.7"/><path marker-end="url(#my-svg_flowchart-pointEnd)" style="fill:none;" class="edge-thickness-normal edge-pattern-solid flowchart-link LS-Complete LE-UI" id="L-Complete-UI-0" d="M402.859,1216L402.859,1220.167C402.859,1224.333,402.859,1232.667,402.859,1240.117C402.859,1247.567,402.859,1254.133,402.859,1257.417L402.859,1260.7"/></g><g class="edgeLabels"><g class="edgeLabel"><g transform="translate(0, 0)" class="label"><foreignObject height="0" width="0"><div style="display: inline-block; white-space: nowrap;" xmlns="http://www.w3.org/1999/xhtml"><span class="edgeLabel"></span></div></foreignObject></g></g><g class="edgeLabel"><g transform="translate(0, 0)" class="label"><foreignObject height="0" width="0"><div style="display: inline-block; white-space: nowrap;" xmlns="http://www.w3.org/1999/xhtml"><span class="edgeLabel"></span></div></foreignObject></g></g><g class="edgeLabel"><g transform="translate(0, 0)" class="label"><foreignObject height="0" width="0"><div style="display: inline-block; white-space: nowrap;" xmlns="http://www.w3.org/1999/xhtml"><span class="edgeLabel"></span></div></foreignObject></g></g><g class="edgeLabel"><g transform="translate(0, 0)" class="label"><foreignObject height="0" width="0"><div style="display: inline-block; white-space: nowrap;" xmlns="http://www.w3.org/1999/xhtml"><span class="edgeLabel"></span></div></foreignObject></g></g><g class="edgeLabel"><g transform="translate(0, 0)" class="label"><foreignObject height="0" width="0"><div style="display: inline-block; white-space: nowrap;" xmlns="http://www.w3.org/1999/xhtml"><span class="edgeLabel"></span></div></foreignObject></g></g><g class="edgeLabel"><g transform="translate(0, 0)" class="label"><foreignObject height="0" width="0"><div style="display: inline-block; white-space: nowrap;" xmlns="http://www.w3.org/1999/xhtml"><span class="edgeLabel"></span></div></foreignObject></g></g><g class="edgeLabel"><g transform="translate(0, 0)" class="label"><foreignObject height="0" width="0"><div style="display: inline-block; white-space: nowrap;" xmlns="http://www.w3.org/1999/xhtml"><span class="edgeLabel"></span></div></foreignObject></g></g><g class="edgeLabel"><g transform="translate(0, 0)" class="label"><foreignObject height="0" width="0"><div style="display: inline-block; white-space: nowrap;" xmlns="http://www.w3.org/1999/xhtml"><span class="edgeLabel"></span></div></foreignObject></g></g><g class="edgeLabel"><g transform="translate(0, 0)" class="label"><foreignObject height="0" width="0"><div style="display: inline-block; white-space: nowrap;" xmlns="http://www.w3.org/1999/xhtml"><span class="edgeLabel"></span></div></foreignObject></g></g><g class="edgeLabel"><g transform="translate(0, 0)" class="label"><foreignObject height="0" width="0"><div style="display: inline-block; white-space: nowrap;" xmlns="http://www.w3.org/1999/xhtml"><span class="edgeLabel"></span></div></foreignObject></g></g><g class="edgeLabel"><g transform="translate(0, 0)" class="label"><foreignObject height="0" width="0"><div style="display: inline-block; white-space: nowrap;" xmlns="http://www.w3.org/1999/xhtml"><span class="edgeLabel"></span></div></foreignObject></g></g><g class="edgeLabel"><g transform="translate(0, 0)" class="label"><foreignObject height="0" width="0"><div style="display: inline-block; white-space: nowrap;" xmlns="http://www.w3.org/1999/xhtml"><span class="edgeLabel"></span></div></foreignObject></g></g><g class="edgeLabel"><g transform="translate(0, 0)" class="label"><foreignObject height="0" width="0"><div style="display: inline-block; white-space: nowrap;" xmlns="http://www.w3.org/1999/xhtml"><span class="edgeLabel"></span></div></foreignObject></g></g><g class="edgeLabel"><g transform="translate(0, 0)" class="label"><foreignObject height="0" width="0"><div style="display: inline-block; white-space: nowrap;" xmlns="http://www.w3.org/1999/xhtml"><span class="edgeLabel"></span></div></foreignObject></g></g><g class="edgeLabel"><g transform="translate(0, 0)" class="label"><foreignObject height="0" width="0"><div style="display: inline-block; white-space: nowrap;" xmlns="http://www.w3.org/1999/xhtml"><span class="edgeLabel"></span></div></foreignObject></g></g><g class="edgeLabel"><g transform="translate(0, 0)" class="label"><foreignObject height="0" width="0"><div style="display: inline-block; white-space: nowrap;" xmlns="http://www.w3.org/1999/xhtml"><span class="edgeLabel"></span></div></foreignObject></g></g><g class="edgeLabel"><g transform="translate(0, 0)" class="label"><foreignObject height="0" width="0"><div style="display: inline-block; white-space: nowrap;" xmlns="http://www.w3.org/1999/xhtml"><span class="edgeLabel"></span></div></foreignObject></g></g><g class="edgeLabel"><g transform="translate(0, 0)" class="label"><foreignObject height="0" width="0"><div style="display: inline-block; white-space: nowrap;" xmlns="http://www.w3.org/1999/xhtml"><span class="edgeLabel"></span></div></foreignObject></g></g><g class="edgeLabel"><g transform="translate(0, 0)" class="label"><foreignObject height="0" width="0"><div style="display: inline-block; white-space: nowrap;" xmlns="http://www.w3.org/1999/xhtml"><span class="edgeLabel"></span></div></foreignObject></g></g><g class="edgeLabel"><g transform="translate(0, 0)" class="label"><foreignObject height="0" width="0"><div style="display: inline-block; white-space: nowrap;" xmlns="http://www.w3.org/1999/xhtml"><span class="edgeLabel"></span></div></foreignObject></g></g><g class="edgeLabel"><g transform="translate(0, 0)" class="label"><foreignObject height="0" width="0"><div style="display: inline-block; white-space: nowrap;" xmlns="http://www.w3.org/1999/xhtml"><span class="edgeLabel"></span></div></foreignObject></g></g><g class="edgeLabel"><g transform="translate(0, 0)" class="label"><foreignObject height="0" width="0"><div style="display: inline-block; white-space: nowrap;" xmlns="http://www.w3.org/1999/xhtml"><span class="edgeLabel"></span></div></foreignObject></g></g><g class="edgeLabel"><g transform="translate(0, 0)" class="label"><foreignObject height="0" width="0"><div style="display: inline-block; white-space: nowrap;" xmlns="http://www.w3.org/1999/xhtml"><span class="edgeLabel"></span></div></foreignObject></g></g><g class="edgeLabel"><g transform="translate(0, 0)" class="label"><foreignObject height="0" width="0"><div style="display: inline-block; white-space: nowrap;" xmlns="http://www.w3.org/1999/xhtml"><span class="edgeLabel"></span></div></foreignObject></g></g><g class="edgeLabel"><g transform="translate(0, 0)" class="label"><foreignObject height="0" width="0"><div style="display: inline-block; white-space: nowrap;" xmlns="http://www.w3.org/1999/xhtml"><span class="edgeLabel"></span></div></foreignObject></g></g><g class="edgeLabel"><g transform="translate(0, 0)" class="label"><foreignObject height="0" width="0"><div style="display: inline-block; white-space: nowrap;" xmlns="http://www.w3.org/1999/xhtml"><span class="edgeLabel"></span></div></foreignObject></g></g><g class="edgeLabel"><g transform="translate(0, 0)" class="label"><foreignObject height="0" width="0"><div style="display: inline-block; white-space: nowrap;" xmlns="http://www.w3.org/1999/xhtml"><span class="edgeLabel"></span></div></foreignObject></g></g></g><g class="nodes"><g transform="translate(402.859375, 17)" data-id="Start" data-node="true" id="flowchart-Start-0" class="node default default flowchart-label"><rect height="34" width="173.234375" y="-17" x="-86.6171875" ry="0" rx="0" style="fill:#e3f2fd;" class="basic label-container"/><g transform="translate(-79.1171875, -9.5)" style="" class="label"><rect/><foreignObject height="19" width="158.234375"><div style="display: inline-block; white-space: nowrap;" xmlns="http://www.w3.org/1999/xhtml"><span class="nodeLabel">Start: ./main_start.sh</span></div></foreignObject></g></g><g transform="translate(402.859375, 120)" data-id="Env" data-node="true" id="flowchart-Env-1" class="node default default flowchart-label"><rect height="72" width="159.09375" y="-36" x="-79.546875" ry="0" rx="0" style="" class="basic label-container"/><g transform="translate(-72.046875, -28.5)" style="" class="label"><rect/><foreignObject height="57" width="144.09375"><div style="display: inline-block; white-space: nowrap;" xmlns="http://www.w3.org/1999/xhtml"><span class="nodeLabel">1. Load .env<br />or use .env.example<br />as template</span></div></foreignObject></g></g><g transform="translate(402.859375, 242)" data-id="TC" data-node="true" id="flowchart-TC-3" class="node default default flowchart-label"><rect height="72" width="276.453125" y="-36" x="-138.2265625" ry="0" rx="0" style="fill:#e1f5ff;" class="basic label-container"/><g transform="translate(-130.7265625, -28.5)" style="" class="label"><rect/><foreignObject height="57" width="261.453125"><div style="display: inline-block; white-space: nowrap;" xmlns="http://www.w3.org/1999/xhtml"><span class="nodeLabel">2. Start Target_Client<br />docker compose up<br />Target_Client/docker-compose.yaml</span></div></foreignObject></g></g><g transform="translate(402.859375, 373.5)" data-id="TCUP" data-node="true" id="flowchart-TCUP-5" class="node default default flowchart-label"><rect height="91" width="158.5" y="-45.5" x="-79.25" ry="0" rx="0" style="" class="basic label-container"/><g transform="translate(-71.75, -38)" style="" class="label"><rect/><foreignObject height="76" width="143.5"><div style="display: inline-block; white-space: nowrap;" xmlns="http://www.w3.org/1999/xhtml"><span class="nodeLabel">Target_Client Ready<br />gateway 8000<br />services 8001-8002<br />Prometheus/Loki</span></div></foreignObject></g></g><g transform="translate(402.859375, 505)" data-id="Platform" data-node="true" id="flowchart-Platform-7" class="node default default flowchart-label"><rect height="72" width="242.75" y="-36" x="-121.375" ry="0" rx="0" style="fill:#f3e5f5;" class="basic label-container"/><g transform="translate(-113.875, -28.5)" style="" class="label"><rect/><foreignObject height="57" width="227.75"><div style="display: inline-block; white-space: nowrap;" xmlns="http://www.w3.org/1999/xhtml"><span class="nodeLabel">3. Start Platform Stack<br />docker compose up<br />platform/docker-compose.yaml</span></div></foreignObject></g></g><g transform="translate(80.62109375, 627)" data-id="PG" data-node="true" id="flowchart-PG-9" class="node default default flowchart-label"><rect height="72" width="96.578125" y="-36" x="-48.2890625" ry="0" rx="0" style="" class="basic label-container"/><g transform="translate(-40.7890625, -28.5)" style="" class="label"><rect/><foreignObject height="57" width="81.578125"><div style="display: inline-block; white-space: nowrap;" xmlns="http://www.w3.org/1999/xhtml"><span class="nodeLabel">PostgreSQL<br />migrations<br />seed admin</span></div></foreignObject></g></g><g transform="translate(227.61328125, 627)" data-id="Cache" data-node="true" id="flowchart-Cache-11" class="node default default flowchart-label"><rect height="53" width="97.40625" y="-26.5" x="-48.703125" ry="0" rx="0" style="" class="basic label-container"/><g transform="translate(-41.203125, -19)" style="" class="label"><rect/><foreignObject height="38" width="82.40625"><div style="display: inline-block; white-space: nowrap;" xmlns="http://www.w3.org/1999/xhtml"><span class="nodeLabel">Redis<br />Agent state</span></div></foreignObject></g></g><g transform="translate(382.43359375, 627)" data-id="Vec" data-node="true" id="flowchart-Vec-13" class="node default default flowchart-label"><rect height="53" width="112.234375" y="-26.5" x="-56.1171875" ry="0" rx="0" style="" class="basic label-container"/><g transform="translate(-48.6171875, -19)" style="" class="label"><rect/><foreignObject height="38" width="97.234375"><div style="display: inline-block; white-space: nowrap;" xmlns="http://www.w3.org/1999/xhtml"><span class="nodeLabel">Qdrant<br />Memory store</span></div></foreignObject></g></g><g transform="translate(539.34765625, 627)" data-id="Backend" data-node="true" id="flowchart-Backend-15" class="node default default flowchart-label"><rect height="72" width="101.59375" y="-36" x="-50.796875" ry="0" rx="0" style="" class="basic label-container"/><g transform="translate(-43.296875, -28.5)" style="" class="label"><rect/><foreignObject height="57" width="86.59375"><div style="display: inline-block; white-space: nowrap;" xmlns="http://www.w3.org/1999/xhtml"><span class="nodeLabel">Backend API<br />FastAPI<br />8080</span></div></foreignObject></g></g><g transform="translate(684.88671875, 627)" data-id="Dashboard" data-node="true" id="flowchart-Dashboard-17" class="node default default flowchart-label"><rect height="72" width="89.484375" y="-36" x="-44.7421875" ry="0" rx="0" style="" class="basic label-container"/><g transform="translate(-37.2421875, -28.5)" style="" class="label"><rect/><foreignObject height="57" width="74.484375"><div style="display: inline-block; white-space: nowrap;" xmlns="http://www.w3.org/1999/xhtml"><span class="nodeLabel">Dashboard<br />Next.js<br />3002</span></div></foreignObject></g></g><g transform="translate(400.6171875, 730)" data-id="Ready1" data-node="true" id="flowchart-Ready1-19" class="node default default flowchart-label"><rect height="34" width="124.8125" y="-17" x="-62.40625" ry="0" rx="0" style="" class="basic label-container"/><g transform="translate(-54.90625, -9.5)" style="" class="label"><rect/><foreignObject height="19" width="109.8125"><div style="display: inline-block; white-space: nowrap;" xmlns="http://www.w3.org/1999/xhtml"><span class="nodeLabel">Platform Ready</span></div></foreignObject></g></g><g transform="translate(400.6171875, 833)" data-id="Edge" data-node="true" id="flowchart-Edge-29" class="node default default flowchart-label"><rect height="72" width="210.25" y="-36" x="-105.125" ry="0" rx="0" style="fill:#fff3e0;" class="basic label-container"/><g transform="translate(-97.625, -28.5)" style="" class="label"><rect/><foreignObject height="57" width="195.25"><div style="display: inline-block; white-space: nowrap;" xmlns="http://www.w3.org/1999/xhtml"><span class="nodeLabel">4. Start Edge MCP<br />edge_mcp_servers/start.sh<br />or compose up</span></div></foreignObject></g></g><g transform="translate(65, 945.5)" data-id="K8S" data-node="true" id="flowchart-K8S-31" class="node default default flowchart-label"><rect height="53" width="130" y="-26.5" x="-65" ry="0" rx="0" style="" class="basic label-container"/><g transform="translate(-57.5, -19)" style="" class="label"><rect/><foreignObject height="38" width="115"><div style="display: inline-block; white-space: nowrap;" xmlns="http://www.w3.org/1999/xhtml"><span class="nodeLabel">Kubernetes MCP<br />4000</span></div></foreignObject></g></g><g transform="translate(246.84375, 945.5)" data-id="PR" data-node="true" id="flowchart-PR-33" class="node default default flowchart-label"><rect height="53" width="133.6875" y="-26.5" x="-66.84375" ry="0" rx="0" style="" class="basic label-container"/><g transform="translate(-59.34375, -19)" style="" class="label"><rect/><foreignObject height="38" width="118.6875"><div style="display: inline-block; white-space: nowrap;" xmlns="http://www.w3.org/1999/xhtml"><span class="nodeLabel">Prometheus MCP<br />4001</span></div></foreignObject></g></g><g transform="translate(403.1796875, 945.5)" data-id="LK" data-node="true" id="flowchart-LK-35" class="node default default flowchart-label"><rect height="53" width="78.984375" y="-26.5" x="-39.4921875" ry="0" rx="0" style="" class="basic label-container"/><g transform="translate(-31.9921875, -19)" style="" class="label"><rect/><foreignObject height="38" width="63.984375"><div style="display: inline-block; white-space: nowrap;" xmlns="http://www.w3.org/1999/xhtml"><span class="nodeLabel">Loki MCP<br />4002</span></div></foreignObject></g></g><g transform="translate(542.4296875, 945.5)" data-id="GH" data-node="true" id="flowchart-GH-37" class="node default default flowchart-label"><rect height="53" width="99.515625" y="-26.5" x="-49.7578125" ry="0" rx="0" style="" class="basic label-container"/><g transform="translate(-42.2578125, -19)" style="" class="label"><rect/><foreignObject height="38" width="84.515625"><div style="display: inline-block; white-space: nowrap;" xmlns="http://www.w3.org/1999/xhtml"><span class="nodeLabel">GitHub MCP<br />4003</span></div></foreignObject></g></g><g transform="translate(700.5078125, 945.5)" data-id="RB" data-node="true" id="flowchart-RB-39" class="node default default flowchart-label"><rect height="53" width="116.640625" y="-26.5" x="-58.3203125" ry="0" rx="0" style="" class="basic label-container"/><g transform="translate(-50.8203125, -19)" style="" class="label"><rect/><foreignObject height="38" width="101.640625"><div style="display: inline-block; white-space: nowrap;" xmlns="http://www.w3.org/1999/xhtml"><span class="nodeLabel">Runbooks MCP<br />4004</span></div></foreignObject></g></g><g transform="translate(402.859375, 1039)" data-id="EdgeReady" data-node="true" id="flowchart-EdgeReady-41" class="node default default flowchart-label"><rect height="34" width="96.671875" y="-17" x="-48.3359375" ry="0" rx="0" style="" class="basic label-container"/><g transform="translate(-40.8359375, -9.5)" style="" class="label"><rect/><foreignObject height="19" width="81.671875"><div style="display: inline-block; white-space: nowrap;" xmlns="http://www.w3.org/1999/xhtml"><span class="nodeLabel">Edge Ready</span></div></foreignObject></g></g><g transform="translate(402.859375, 1161)" data-id="Complete" data-node="true" id="flowchart-Complete-51" class="node default default flowchart-label"><rect height="110" width="156.828125" y="-55" x="-78.4140625" ry="0" rx="0" style="fill:#e8f5e9;" class="basic label-container"/><g transform="translate(-70.9140625, -47.5)" style="" class="label"><rect/><foreignObject height="95" width="141.828125"><div style="display: inline-block; white-space: nowrap;" xmlns="http://www.w3.org/1999/xhtml"><span class="nodeLabel">All Systems Running<br />Dashboard: 3002<br />API: 8080<br />Target: 8000<br />MCP: 4000-4004</span></div></foreignObject></g></g><g transform="translate(402.859375, 1311.5)" data-id="UI" data-node="true" id="flowchart-UI-53" class="node default default flowchart-label"><rect height="91" width="191.140625" y="-45.5" x="-95.5703125" ry="0" rx="0" style="fill:#f3e5f5;" class="basic label-container"/><g transform="translate(-88.0703125, -38)" style="" class="label"><rect/><foreignObject height="76" width="176.140625"><div style="display: inline-block; white-space: nowrap;" xmlns="http://www.w3.org/1999/xhtml"><span class="nodeLabel">Open Dashboard<br />Login with admin<br />Create or select cluster<br />Send investigation query</span></div></foreignObject></g></g></g></g></g></svg>