<svg aria-roledescription="flowchart-v2" role="graphics-document document" viewBox="-8 -8 2252.1953125 517.2179260253906" style="max-width: 2252.2px; background-color: white;" xmlns:xlink="http://www.w3.org/1999/xlink" xmlns="http://www.w3.org/2000/svg" width="100%" id="my-svg"><style>#my-svg{font-family:"trebuchet ms",verdana,arial,sans-serif;font-size:16px;fill:#ccc;}#my-svg .error-icon{fill:#a44141;}#my-svg .error-text{fill:#ddd;stroke:#ddd;}#my-svg .edge-thickness-normal{stroke-width:2px;}#my-svg .edge-thickness-thick{stroke-width:3.5px;}#my-svg .edge-pattern-solid{stroke-dasharray:0;}#my-svg .edge-pattern-dashed{stroke-dasharray:3;}#my-svg .edge-pattern-dotted{stroke-dasharray:2;}#my-svg .marker{fill:lightgrey;stroke:lightgrey;}#my-svg .marker.cross{stroke:lightgrey;}#my-svg svg{font-family:"trebuchet ms",verdana,arial,sans-serif;font-size:16px;}#my-svg .label{font-family:"trebuchet ms",verdana,arial,sans-serif;color:#ccc;}#my-svg .cluster-label text{fill:#F9FFFE;}#my-svg .cluster-label span,#my-svg p{color:#F9FFFE;}#my-svg .label text,#my-svg span,#my-svg p{fill:#ccc;color:#ccc;}#my-svg .node rect,#my-svg .node circle,#my-svg .node ellipse,#my-svg .node polygon,#my-svg .node path{fill:#1f2020;stroke:#81B1DB;stroke-width:1px;}#my-svg .flowchart-label text{text-anchor:middle;}#my-svg .node .katex path{fill:#000;stroke:#000;stroke-width:1px;}#my-svg .node .label{text-align:center;}#my-svg .node.clickable{cursor:pointer;}#my-svg .arrowheadPath{fill:lightgrey;}#my-svg .edgePath .path{stroke:lightgrey;stroke-width:2.0px;}#my-svg .flowchart-link{stroke:lightgrey;fill:none;}#my-svg .edgeLabel{background-color:hsl(0, 0%, 34.4117647059%);text-align:center;}#my-svg .edgeLabel rect{opacity:0.5;background-color:hsl(0, 0%, 34.4117647059%);fill:hsl(0, 0%, 34.4117647059%);}#my-svg .labelBkg{background-color:rgba(87.75, 87.75, 87.75, 0.5);}#my-svg .cluster rect{fill:hsl(180, 1.5873015873%, 28.3529411765%);stroke:rgba(255, 255, 255, 0.25);stroke-width:1px;}#my-svg .cluster text{fill:#F9FFFE;}#my-svg .cluster span,#my-svg p{color:#F9FFFE;}#my-svg div.mermaidTooltip{position:absolute;text-align:center;max-width:200px;padding:2px;font-family:"trebuchet ms",verdana,arial,sans-serif;font-size:12px;background:hsl(20, 1.5873015873%, 12.3529411765%);border:1px solid rgba(255, 255, 255, 0.25);border-radius:2px;pointer-events:none;z-index:100;}#my-svg .flowchartTitleText{text-anchor:middle;font-size:18px;fill:#ccc;}#my-svg :root{--mermaid-font-family:"trebuchet ms",verdana,arial,sans-serif;}</style><g><marker orient="auto" markerHeight="12" markerWidth="12" markerUnits="userSpaceOnUse" refY="5" refX="6" viewBox="0 0 10 10" class="marker flowchart" id="my-svg_flowchart-pointEnd"><path style="stroke-width: 1; stroke-dasharray: 1, 0;" class="arrowMarkerPath" d="M 0 0 L 10 5 L 0 10 z"/></marker><marker orient="auto" markerHeight="12" markerWidth="12" markerUnits="userSpaceOnUse" refY="5" refX="4.5" viewBox="0 0 10 10" class="marker flowchart" id="my-svg_flowchart-pointStart"><path style="stroke-width: 1; stroke-dasharray: 1, 0;" class="arrowMarkerPath" d="M 0 5 L 10 10 L 10 0 z"/></marker><marker orient="auto" markerHeight="11" markerWidth="11" markerUnits="userSpaceOnUse" refY="5" refX="11" viewBox="0 0 10 10" class="marker flowchart" id="my-svg_flowchart-circleEnd"><circle style="stroke-width: 1; stroke-dasharray: 1, 0;" class="arrowMarkerPath" r="5" cy="5" cx="5"/></marker><marker orient="auto" markerHeight="11" markerWidth="11" markerUnits="userSpaceOnUse" refY="5" refX="-1" viewBox="0 0 10 10" class="marker flowchart" id="my-svg_flowchart-circleStart"><circle style="stroke-width: 1; stroke-dasharray: 1, 0;" class="arrowMarkerPath" r="5" cy="5" cx="5"/></marker><marker orient="auto" markerHeight="11" markerWidth="11" markerUnits="userSpaceOnUse" refY="5.2" refX="12" viewBox="0 0 11 11" class="marker cross flowchart" id="my-svg_flowchart-crossEnd"><path style="stroke-width: 2; stroke-dasharray: 1, 0;" class="arrowMarkerPath" d="M 1,1 l 9,9 M 10,1 l -9,9"/></marker><marker orient="auto" markerHeight="11" markerWidth="11" markerUnits="userSpaceOnUse" refY="5.2" refX="-1" viewBox="0 0 11 11" class="marker cross flowchart" id="my-svg_flowchart-crossStart"><path style="stroke-width: 2; stroke-dasharray: 1, 0;" class="arrowMarkerPath" d="M 1,1 l 9,9 M 10,1 l -9,9"/></marker><g class="root"><g class="clusters"><g id="Platform" class="cluster default flowchart-label"><rect height="501.21793365478516" width="525.9140625" y="0" x="0" ry="0" rx="0" style="fill:#f3e5f5;"/><g transform="translate(148.85546875, 0)" class="cluster-label"><foreignObject height="19" width="228.203125"><div style="display: inline-block; white-space: nowrap;" xmlns="http://www.w3.org/1999/xhtml"><span class="nodeLabel">platform + backend + sre_agent</span></div></foreignObject></g></g><g id="Edge" class="cluster default flowchart-label"><rect height="238" width="828.828125" y="0" x="1407.3671875" ry="0" rx="0" style="fill:#fff3e0;"/><g transform="translate(1755.7890625, 0)" class="cluster-label"><foreignObject height="19" width="131.984375"><div style="display: inline-block; white-space: nowrap;" xmlns="http://www.w3.org/1999/xhtml"><span class="nodeLabel">edge_mcp_servers</span></div></foreignObject></g></g></g><g class="edgePaths"><path marker-end="url(#my-svg_flowchart-pointEnd)" style="fill:none;" class="edge-thickness-normal edge-pattern-solid flowchart-link LS-UI LE-API" id="L-UI-API-0" d="M79.289,136L79.289,153C79.289,170,79.289,204,79.289,226.75C79.289,249.5,79.289,261,100.523,272.277C121.757,283.555,164.225,294.61,185.459,300.137L206.693,305.665"/><path marker-end="url(#my-svg_flowchart-pointEnd)" style="fill:none;" class="edge-thickness-normal edge-pattern-solid flowchart-link LS-API LE-DB" id="L-API-DB-0" d="M212.746,341L190.969,346.75C169.193,352.5,125.639,364,103.863,374.617C82.086,385.233,82.086,394.967,82.086,399.833L82.086,404.7"/><path marker-end="url(#my-svg_flowchart-pointEnd)" style="fill:none;" class="edge-thickness-normal edge-pattern-solid flowchart-link LS-API LE-REDIS" id="L-API-REDIS-0" d="M275.134,341L274.459,346.75C273.785,352.5,272.435,364,271.761,375.457C271.086,386.914,271.086,398.329,271.086,404.036L271.086,409.743"/><path marker-end="url(#my-svg_flowchart-pointEnd)" style="fill:none;" class="edge-thickness-normal edge-pattern-solid flowchart-link LS-API LE-QDRANT" id="L-API-QDRANT-0" d="M337.063,341L357.335,346.75C377.607,352.5,418.151,364,438.423,375.176C458.695,386.351,458.695,397.202,458.695,402.628L458.695,408.053"/><path marker-end="url(#my-svg_flowchart-pointEnd)" style="fill:none;" class="edge-thickness-normal edge-pattern-solid flowchart-link LS-K8S LE-API" id="L-K8S-API-0" d="M1507.367,136L1507.367,153C1507.367,170,1507.367,204,1283.086,226.75C1058.805,249.5,610.242,261,398.044,272.14C185.846,283.28,210.013,294.061,222.096,299.451L234.179,304.841"/><path marker-end="url(#my-svg_flowchart-pointEnd)" style="fill:none;" class="edge-thickness-normal edge-pattern-solid flowchart-link LS-PR LE-API" id="L-PR-API-0" d="M1689.211,136L1689.211,153C1689.211,170,1689.211,204,1447.763,226.75C1206.315,249.5,723.419,261,485.547,271.78C247.674,282.56,254.824,292.62,258.4,297.65L261.975,302.68"/><path marker-end="url(#my-svg_flowchart-pointEnd)" style="fill:none;" class="edge-thickness-normal edge-pattern-solid flowchart-link LS-LK LE-API" id="L-LK-API-0" d="M1845.547,136L1845.547,153C1845.547,170,1845.547,204,1592.491,226.75C1339.435,249.5,833.323,261,575.291,271.867C317.259,282.733,307.308,292.967,302.332,298.084L297.356,303.2"/><path marker-end="url(#my-svg_flowchart-pointEnd)" style="fill:none;" class="edge-thickness-normal edge-pattern-solid flowchart-link LS-GH LE-API" id="L-GH-API-0" d="M1984.797,136L1984.797,153C1984.797,170,1984.797,204,1719.221,226.75C1453.646,249.5,922.495,261,644.972,272.137C367.45,283.274,343.556,294.048,331.609,299.435L319.662,304.821"/><path marker-end="url(#my-svg_flowchart-pointEnd)" style="fill:none;" class="edge-thickness-normal edge-pattern-solid flowchart-link LS-RB LE-API" id="L-RB-API-0" d="M2142.875,136L2142.875,153C2142.875,170,2142.875,204,1864.686,226.75C1586.497,249.5,1030.12,261,730.834,272.276C431.547,283.552,389.352,294.605,368.255,300.131L347.157,305.657"/></g><g class="edgeLabels"><g transform="translate(79.2890625, 272.5)" class="edgeLabel"><g transform="translate(-30.3125, -9.5)" class="label"><foreignObject height="19" width="60.625"><div style="display: inline-block; white-space: nowrap;" xmlns="http://www.w3.org/1999/xhtml"><span class="edgeLabel">requests</span></div></foreignObject></g></g><g transform="translate(82.0859375, 375.5)" class="edgeLabel"><g transform="translate(-27.1015625, -9.5)" class="label"><foreignObject height="19" width="54.203125"><div style="display: inline-block; white-space: nowrap;" xmlns="http://www.w3.org/1999/xhtml"><span class="edgeLabel">persists</span></div></foreignObject></g></g><g transform="translate(271.0859375, 375.5)" class="edgeLabel"><g transform="translate(-18.1484375, -9.5)" class="label"><foreignObject height="19" width="36.296875"><div style="display: inline-block; white-space: nowrap;" xmlns="http://www.w3.org/1999/xhtml"><span class="edgeLabel">state</span></div></foreignObject></g></g><g transform="translate(458.6953125, 375.5)" class="edgeLabel"><g transform="translate(-28.9921875, -9.5)" class="label"><foreignObject height="19" width="57.984375"><div style="display: inline-block; white-space: nowrap;" xmlns="http://www.w3.org/1999/xhtml"><span class="edgeLabel">memory</span></div></foreignObject></g></g><g transform="translate(161.6796875, 272.5)" class="edgeLabel"><g transform="translate(-32.078125, -9.5)" class="label"><foreignObject height="19" width="64.15625"><div style="display: inline-block; white-space: nowrap;" xmlns="http://www.w3.org/1999/xhtml"><span class="edgeLabel">evidence</span></div></foreignObject></g></g><g transform="translate(240.5234375, 272.5)" class="edgeLabel"><g transform="translate(-26.765625, -9.5)" class="label"><foreignObject height="19" width="53.53125"><div style="display: inline-block; white-space: nowrap;" xmlns="http://www.w3.org/1999/xhtml"><span class="edgeLabel">metrics</span></div></foreignObject></g></g><g transform="translate(327.2109375, 272.5)" class="edgeLabel"><g transform="translate(-13.90625, -9.5)" class="label"><foreignObject height="19" width="27.8125"><div style="display: inline-block; white-space: nowrap;" xmlns="http://www.w3.org/1999/xhtml"><span class="edgeLabel">logs</span></div></foreignObject></g></g><g transform="translate(391.34375, 272.5)" class="edgeLabel"><g transform="translate(-30.2265625, -9.5)" class="label"><foreignObject height="19" width="60.453125"><div style="display: inline-block; white-space: nowrap;" xmlns="http://www.w3.org/1999/xhtml"><span class="edgeLabel">commits</span></div></foreignObject></g></g><g transform="translate(473.7421875, 272.5)" class="edgeLabel"><g transform="translate(-32.171875, -9.5)" class="label"><foreignObject height="19" width="64.34375"><div style="display: inline-block; white-space: nowrap;" xmlns="http://www.w3.org/1999/xhtml"><span class="edgeLabel">runbooks</span></div></foreignObject></g></g></g><g class="nodes"><g transform="translate(79.2890625, 119)" data-id="UI" data-node="true" id="flowchart-UI-18" class="node default default flowchart-label"><rect height="34" width="88.578125" y="-17" x="-44.2890625" ry="0" rx="0" style="" class="basic label-container"/><g transform="translate(-36.7890625, -9.5)" style="" class="label"><rect/><foreignObject height="19" width="73.578125"><div style="display: inline-block; white-space: nowrap;" xmlns="http://www.w3.org/1999/xhtml"><span class="nodeLabel">dashboard</span></div></foreignObject></g></g><g transform="translate(277.12890625, 324)" data-id="API" data-node="true" id="flowchart-API-19" class="node default default flowchart-label"><rect height="34" width="146.5" y="-17" x="-73.25" ry="0" rx="0" style="" class="basic label-container"/><g transform="translate(-65.75, -9.5)" style="" class="label"><rect/><foreignObject height="19" width="131.5"><div style="display: inline-block; white-space: nowrap;" xmlns="http://www.w3.org/1999/xhtml"><span class="nodeLabel">sre_agent runtime</span></div></foreignObject></g></g><g transform="translate(82.0859375, 443.1089668273926)" data-id="DB" data-node="true" id="flowchart-DB-20" class="node default default flowchart-label"><path transform="translate(-47.0859375,-33.11267555428816)" d="M 0,10.741783702858772 a 47.0859375,10.741783702858772 0,0,0 94.171875 0 a 47.0859375,10.741783702858772 0,0,0 -94.171875 0 l 0,44.74178370285877 a 47.0859375,10.741783702858772 0,0,0 94.171875 0 l 0,-44.74178370285877" style=""/><g transform="translate(-39.5859375, -9.5)" style="" class="label"><rect/><foreignObject height="19" width="79.171875"><div style="display: inline-block; white-space: nowrap;" xmlns="http://www.w3.org/1999/xhtml"><span class="nodeLabel">PostgreSQL</span></div></foreignObject></g></g><g transform="translate(271.0859375, 443.1089668273926)" data-id="REDIS" data-node="true" id="flowchart-REDIS-21" class="node default default flowchart-label"><path transform="translate(-26.171875,-28.06828193832599)" d="M 0,7.378854625550661 a 26.171875,7.378854625550661 0,0,0 52.34375 0 a 26.171875,7.378854625550661 0,0,0 -52.34375 0 l 0,41.37885462555066 a 26.171875,7.378854625550661 0,0,0 52.34375 0 l 0,-41.37885462555066" style=""/><g transform="translate(-18.671875, -9.5)" style="" class="label"><rect/><foreignObject height="19" width="37.34375"><div style="display: inline-block; white-space: nowrap;" xmlns="http://www.w3.org/1999/xhtml"><span class="nodeLabel">Redis</span></div></foreignObject></g></g><g transform="translate(458.6953125, 443.1089668273926)" data-id="QDRANT" data-node="true" id="flowchart-QDRANT-22" class="node default default flowchart-label"><path transform="translate(-32.21875,-29.755691191026063)" d="M 0,8.503794127350709 a 32.21875,8.503794127350709 0,0,0 64.4375 0 a 32.21875,8.503794127350709 0,0,0 -64.4375 0 l 0,42.50379412735071 a 32.21875,8.503794127350709 0,0,0 64.4375 0 l 0,-42.50379412735071" style=""/><g transform="translate(-24.71875, -9.5)" style="" class="label"><rect/><foreignObject height="19" width="49.4375"><div style="display: inline-block; white-space: nowrap;" xmlns="http://www.w3.org/1999/xhtml"><span class="nodeLabel">Qdrant</span></div></foreignObject></g></g><g transform="translate(1507.3671875, 119)" data-id="K8S" data-node="true" id="flowchart-K8S-13" class="node default default flowchart-label"><rect height="34" width="130" y="-17" x="-65" ry="0" rx="0" style="" class="basic label-container"/><g transform="translate(-57.5, -9.5)" style="" class="label"><rect/><foreignObject height="19" width="115"><div style="display: inline-block; white-space: nowrap;" xmlns="http://www.w3.org/1999/xhtml"><span class="nodeLabel">Kubernetes MCP</span></div></foreignObject></g></g><g transform="translate(1689.2109375, 119)" data-id="PR" data-node="true" id="flowchart-PR-14" class="node default default flowchart-label"><rect height="34" width="133.6875" y="-17" x="-66.84375" ry="0" rx="0" style="" class="basic label-container"/><g transform="translate(-59.34375, -9.5)" style="" class="label"><rect/><foreignObject height="19" width="118.6875"><div style="display: inline-block; white-space: nowrap;" xmlns="http://www.w3.org/1999/xhtml"><span class="nodeLabel">Prometheus MCP</span></div></foreignObject></g></g><g transform="translate(1845.546875, 119)" data-id="LK" data-node="true" id="flowchart-LK-15" class="node default default flowchart-label"><rect height="34" width="78.984375" y="-17" x="-39.4921875" ry="0" rx="0" style="" class="basic label-container"/><g transform="translate(-31.9921875, -9.5)" style="" class="label"><rect/><foreignObject height="19" width="63.984375"><div style="display: inline-block; white-space: nowrap;" xmlns="http://www.w3.org/1999/xhtml"><span class="nodeLabel">Loki MCP</span></div></foreignObject></g></g><g transform="translate(1984.796875, 119)" data-id="GH" data-node="true" id="flowchart-GH-16" class="node default default flowchart-label"><rect height="34" width="99.515625" y="-17" x="-49.7578125" ry="0" rx="0" style="" class="basic label-container"/><g transform="translate(-42.2578125, -9.5)" style="" class="label"><rect/><foreignObject height="19" width="84.515625"><div style="display: inline-block; white-space: nowrap;" xmlns="http://www.w3.org/1999/xhtml"><span class="nodeLabel">GitHub MCP</span></div></foreignObject></g></g><g transform="translate(2142.875, 119)" data-id="RB" data-node="true" id="flowchart-RB-17" class="node default default flowchart-label"><rect height="34" width="116.640625" y="-17" x="-58.3203125" ry="0" rx="0" style="" class="basic label-container"/><g transform="translate(-50.8203125, -9.5)" style="" class="label"><rect/><foreignObject height="19" width="101.640625"><div style="display: inline-block; white-space: nowrap;" xmlns="http://www.w3.org/1999/xhtml"><span class="nodeLabel">Runbooks MCP</span></div></foreignObject></g></g><g transform="translate(553.4140625, 17)" class="root"><g class="clusters"><g id="Target" class="cluster default flowchart-label"><rect height="188" width="811.453125" y="8" x="8" ry="0" rx="0" style="fill:#e1f5ff;"/><g transform="translate(365.6875, 8)" class="cluster-label"><foreignObject height="19" width="96.078125"><div style="display: inline-block; white-space: nowrap;" xmlns="http://www.w3.org/1999/xhtml"><span class="nodeLabel">Target_Client</span></div></foreignObject></g></g></g><g class="edgePaths"><path marker-end="url(#my-svg_flowchart-pointEnd)" style="fill:none;" class="edge-thickness-normal edge-pattern-solid flowchart-link LS-LG LE-GW" id="L-LG-GW-0" d="M362.609,102L370.549,102C378.49,102,394.37,102,409.367,102C424.364,102,438.477,102,445.534,102L452.591,102"/><path marker-end="url(#my-svg_flowchart-pointEnd)" style="fill:none;" class="edge-thickness-normal edge-pattern-solid flowchart-link LS-GW LE-CK" id="L-GW-CK-0" d="M549.108,85L558.908,80.833C568.707,76.667,588.307,68.333,605.364,64.167C622.421,60,636.935,60,644.193,60L651.45,60"/><path marker-end="url(#my-svg_flowchart-pointEnd)" style="fill:none;" class="edge-thickness-normal edge-pattern-solid flowchart-link LS-GW LE-INV" id="L-GW-INV-0" d="M549.108,119L558.908,123.167C568.707,127.333,588.307,135.667,605.148,139.833C621.989,144,636.071,144,643.112,144L650.153,144"/><path marker-end="url(#my-svg_flowchart-pointEnd)" style="fill:none;" class="edge-thickness-normal edge-pattern-solid flowchart-link LS-CP LE-LG" id="L-CP-LG-0" d="M133.516,102L142.482,102C151.448,102,169.38,102,186.429,102C203.478,102,219.644,102,227.727,102L235.809,102"/></g><g class="edgeLabels"><g transform="translate(410.25, 102)" class="edgeLabel"><g transform="translate(-22.640625, -9.5)" class="label"><foreignObject height="19" width="45.28125"><div style="display: inline-block; white-space: nowrap;" xmlns="http://www.w3.org/1999/xhtml"><span class="edgeLabel">traffic</span></div></foreignObject></g></g><g transform="translate(607.90625, 60)" class="edgeLabel"><g transform="translate(-22.546875, -9.5)" class="label"><foreignObject height="19" width="45.09375"><div style="display: inline-block; white-space: nowrap;" xmlns="http://www.w3.org/1999/xhtml"><span class="edgeLabel">routes</span></div></foreignObject></g></g><g transform="translate(607.90625, 144)" class="edgeLabel"><g transform="translate(-22.546875, -9.5)" class="label"><foreignObject height="19" width="45.09375"><div style="display: inline-block; white-space: nowrap;" xmlns="http://www.w3.org/1999/xhtml"><span class="edgeLabel">routes</span></div></foreignObject></g></g><g transform="translate(187.3125, 102)" class="edgeLabel"><g transform="translate(-28.796875, -9.5)" class="label"><foreignObject height="19" width="57.59375"><div style="display: inline-block; white-space: nowrap;" xmlns="http://www.w3.org/1999/xhtml"><span class="edgeLabel">controls</span></div></foreignObject></g></g></g><g class="nodes"><g transform="translate(301.859375, 102)" data-id="LG" data-node="true" id="flowchart-LG-0" class="node default default flowchart-label"><rect height="34" width="121.5" y="-17" x="-60.75" ry="0" rx="0" style="" class="basic label-container"/><g transform="translate(-53.25, -9.5)" style="" class="label"><rect/><foreignObject height="19" width="106.5"><div style="display: inline-block; white-space: nowrap;" xmlns="http://www.w3.org/1999/xhtml"><span class="nodeLabel">load-generator</span></div></foreignObject></g></g><g transform="translate(509.125, 102)" data-id="GW" data-node="true" id="flowchart-GW-1" class="node default default flowchart-label"><rect height="34" width="102.46875" y="-17" x="-51.234375" ry="0" rx="0" style="" class="basic label-container"/><g transform="translate(-43.734375, -9.5)" style="" class="label"><rect/><foreignObject height="19" width="87.46875"><div style="display: inline-block; white-space: nowrap;" xmlns="http://www.w3.org/1999/xhtml"><span class="nodeLabel">api-gateway</span></div></foreignObject></g></g><g transform="translate(724.953125, 60)" data-id="CK" data-node="true" id="flowchart-CK-2" class="node default default flowchart-label"><rect height="34" width="136.40625" y="-17" x="-68.203125" ry="0" rx="0" style="" class="basic label-container"/><g transform="translate(-60.703125, -9.5)" style="" class="label"><rect/><foreignObject height="19" width="121.40625"><div style="display: inline-block; white-space: nowrap;" xmlns="http://www.w3.org/1999/xhtml"><span class="nodeLabel">checkout-service</span></div></foreignObject></g></g><g transform="translate(724.953125, 144)" data-id="INV" data-node="true" id="flowchart-INV-3" class="node default default flowchart-label"><rect height="34" width="139" y="-17" x="-69.5" ry="0" rx="0" style="" class="basic label-container"/><g transform="translate(-62, -9.5)" style="" class="label"><rect/><foreignObject height="19" width="124"><div style="display: inline-block; white-space: nowrap;" xmlns="http://www.w3.org/1999/xhtml"><span class="nodeLabel">inventory-service</span></div></foreignObject></g></g><g transform="translate(83.2578125, 102)" data-id="CP" data-node="true" id="flowchart-CP-4" class="node default default flowchart-label"><rect height="34" width="100.515625" y="-17" x="-50.2578125" ry="0" rx="0" style="" class="basic label-container"/><g transform="translate(-42.7578125, -9.5)" style="" class="label"><rect/><foreignObject height="19" width="85.515625"><div style="display: inline-block; white-space: nowrap;" xmlns="http://www.w3.org/1999/xhtml"><span class="nodeLabel">chaos-panel</span></div></foreignObject></g></g></g></g></g></g></g></svg>